<svg id="visual" viewBox="0 0 150 600" width="150" height="600" xmlns="http://www.w3.org/2000/svg" xmlns:xlink="http://www.w3.org/1999/xlink" version="1.1"><rect x="0" y="0" width="150" height="600" fill="#ffffff"></rect><path d="M97 600L81 600L81 574L57 574L57 548L17 548L17 522L31 522L31 496L107 496L107 470L56 470L56 443L131 443L131 417L62 417L62 391L56 391L56 365L67 365L67 339L122 339L122 313L60 313L60 287L40 287L40 261L144 261L144 235L117 235L117 209L0 209L0 183L124 183L124 157L144 157L144 130L21 130L21 104L26 104L26 78L87 78L87 52L33 52L33 26L64 26L64 0L150 0L150 26L150 26L150 52L150 52L150 78L150 78L150 104L150 104L150 130L150 130L150 157L150 157L150 183L150 183L150 209L150 209L150 235L150 235L150 261L150 261L150 287L150 287L150 313L150 313L150 339L150 339L150 365L150 365L150 391L150 391L150 417L150 417L150 443L150 443L150 470L150 470L150 496L150 496L150 522L150 522L150 548L150 548L150 574L150 574L150 600L150 600Z" fill="#fffce5"></path></svg>