<svg id="visual" viewBox="0 0 150 600" width="150" height="600" xmlns="http://www.w3.org/2000/svg" xmlns:xlink="http://www.w3.org/1999/xlink" version="1.1"><rect x="0" y="0" width="150" height="600" fill="#ffffff"></rect><path d="M55 0L71 0L71 26L95 26L95 52L135 52L135 78L121 78L121 104L45 104L45 130L96 130L96 157L21 157L21 183L90 183L90 209L96 209L96 235L85 235L85 261L30 261L30 287L92 287L92 313L112 313L112 339L8 339L8 365L35 365L35 391L151 391L151 417L28 417L28 443L8 443L8 470L131 470L131 496L126 496L126 522L65 522L65 548L119 548L119 574L88 574L88 600L0 600L0 574L0 574L0 548L0 548L0 522L0 522L0 496L0 496L0 470L0 470L0 443L0 443L0 417L0 417L0 391L0 391L0 365L0 365L0 339L0 339L0 313L0 313L0 287L0 287L0 261L0 261L0 235L0 235L0 209L0 209L0 183L0 183L0 157L0 157L0 130L0 130L0 104L0 104L0 78L0 78L0 52L0 52L0 26L0 26L0 0L0 0Z" fill="#fffce5"></path></svg>