<svg id="visual" viewBox="0 0 500 600" width="500" height="600" xmlns="http://www.w3.org/2000/svg" xmlns:xlink="http://www.w3.org/1999/xlink" version="1.1">
<rect x="0" y="0" width="700" height="600" fill="#dff0">
</rect>
<path d="M377 600L381 600L381 574L329 574L329 548L369 548L369 522L338 522L338 496L367 496L367 470L333 470L333 443L382 443L382 417L343 417L343 391L379 391L379 365L322 365L322 339L352 339L352 313L320 313L320 287L356 287L356 261L344 261L344 235L372 235L372 209L319 209L319 183L320 183L320 157L380 157L380 130L320 130L320 104L325 104L325 78L332 78L332 52L341 52L341 26L374 26L374 0L700 0L700 26L700 26L700 52L700 52L700 78L700 78L700 104L700 104L700 130L700 130L700 157L700 157L700 183L700 183L700 209L700 209L700 235L700 235L700 261L700 261L700 287L700 287L700 313L700 313L700 339L700 339L700 365L700 365L700 391L700 391L700 417L700 417L700 443L700 443L700 470L700 470L700 496L700 496L700 522L700 522L700 548L700 548L700 574L700 574L700 600L700 600Z" fill="#dff">
</path>
</svg>