<svg id="visual" viewBox="0 0 700 600" width="700" height="600" xmlns="http://www.w3.org/2000/svg" xmlns:xlink="http://www.w3.org/1999/xlink" version="1.1"><rect x="0" y="0" width="700" height="600" fill="#fff0"></rect><path d="M325 0L321 0L321 26L373 26L373 52L333 52L333 78L364 78L364 104L335 104L335 130L369 130L369 157L320 157L320 183L359 183L359 209L323 209L323 235L380 235L380 261L350 261L350 287L382 287L382 313L346 313L346 339L358 339L358 365L330 365L330 391L383 391L383 417L382 417L382 443L322 443L322 470L382 470L382 496L377 496L377 522L370 522L370 548L361 548L361 574L328 574L328 600L0 600L0 574L0 574L0 548L0 548L0 522L0 522L0 496L0 496L0 470L0 470L0 443L0 443L0 417L0 417L0 391L0 391L0 365L0 365L0 339L0 339L0 313L0 313L0 287L0 287L0 261L0 261L0 235L0 235L0 209L0 209L0 183L0 183L0 157L0 157L0 130L0 130L0 104L0 104L0 78L0 78L0 52L0 52L0 26L0 26L0 0L0 0Z" fill="#dff"></path></svg>