<svg id="visual" viewBox="0 0 700 600" width="700" height="600" xmlns="http://www.w3.org/2000/svg" xmlns:xlink="http://www.w3.org/1999/xlink" version="1.1">
  <rect x="0" y="0" width="700" height="600" fill="#fff0"></rect>
  <path d="M325 0L321 0L321 26L373 26L373 52L333 52L333 78L364 78L364 104L335 104L335 130L369 130L369 157L320 157L320 183L359 183L359 209L323 209L323 235L380 235L380 261L350 261L350 287L382 287L382 313L346 313L346 339L358 339L358 365L330 365L330 391L383 391L383 417L382 417L382 443L322 443L322 470L382 470L382 496L377 496L377 522L370 522L370 548L361 548L361 574L328 574L328 600L700 600L700 0L383 0Z" fill="#dff"></path>
</svg>
