<?xml version="1.0" encoding="utf-8"?>
<!-- Generator: Adobe Illustrator 27.5.0, SVG Export Plug-In . SVG Version: 6.00 Build 0)  -->
<svg version="1.1" xmlns="http://www.w3.org/2000/svg" xmlns:xlink="http://www.w3.org/1999/xlink" x="0px" y="0px"
	 viewBox="0 0 500 500" style="enable-background:new 0 0 500 500;" xml:space="preserve">
<g id="City_00000171697279739473096830000008169796087393036712_">
	<path id="City" style="fill:#F0F0F0;" d="M472.518,107.879l-28.643-16.553l-25.417,14.672l0.02,0.012l0,24.41l-12.694-7.329
		l0-19.544l-0.01-0.006l0.011-0.006l-12.693-7.318v0.002l-0.001-0.001V62.154l0.001-0.001l-0.001,0v0l-14.875-8.588l-23.207-13.399
		l0,0l-16.925,9.772v38.951l-2.206-1.274l-14.72-8.501l-16.93,9.772l0.006,0.003l0,0v45.688l-16.926-9.772v-24.423l0.005-0.003
		l-0.005-0.003v-0.001l-4.668-2.695l-12.256-7.078l-21.166,12.218l0.006,0.004v48.854l-21.156-12.215V61.288l-0.001-0.001
		l0.001-0.001l-13.715-7.918l-11.672-6.739l-0.001,0l-0.001,0l-23.885,13.791l-5.733,3.31v8.695l-0.004,0.002v0l-12.693,7.328
		l0.003,0.002v18.743l-16.926,9.772V70.268l0.007-0.004l-2.926-1.687l-18.237-10.53l-0.01,0.006l-0.002-0.001L96.883,72.709
		l0.011,0.006v29.305l-0.002,0.001v-0.001l-12.693,7.328l0.001,0.001v8.633l-16.926,9.772V55.402l-0.017-0.01l0.016-0.009
		L41.885,40.726l-12.694,7.329l0.017,0.01l-0.016,0.009l-0.001,316.963h448.515V110.875L472.518,107.879z"/>
</g>
<g id="Floor">
	<path style="fill:#FAFAFA;" d="M410.473,267.487c-89.733-51.806-235.217-51.806-324.948,0
		c-26.632,15.376-45.36,33.588-56.183,52.952v81.703c10.823,19.364,29.551,37.576,56.183,52.952
		c89.731,51.806,235.215,51.806,324.948,0C500.206,403.288,500.206,319.293,410.473,267.487z"/>
</g>
<g id="Clouds">
	<path id="Cloud_00000054251988600338357170000006010279478927031710_" style="fill:#EBEBEB;" d="M142.54,35.827
		c0.875,0.122,1.709-0.323,2.087-1.122c0.997-2.104,3.734-3.509,6.758-3.794c3.725-0.351,6.55,0.972,7.455,3.457
		c0.294,0.807,1.154,1.292,2.004,1.168c1.697-0.248,3.212,0.233,3.817,1.54c0.353,0.762,1.19,1.156,2.023,1.045
		c1.063-0.143,2.281-0.075,2.878,0.068c1.081,0.259,2.176,1.232,2.55,2.173c0.003,0.008,0.006,0.015,0.009,0.023
		c0.329,0.835,1.159,1.359,2.049,1.248c1.826-0.227,4.062-0.095,4.766,1.041c1.44,2.323-3.114,2.77-5.478,2.367
		c-0.564-0.096-1.125,0.067-1.562,0.437c-1.464,1.24-5.901,1.444-8.126,0.392c-0.573-0.271-1.239-0.289-1.775,0.051
		c-1.312,0.833-2.969,1.058-4.732,1.162c-3.214,0.191-5.34-0.738-7.741-1.954c-0.61-0.309-1.334-0.261-1.913,0.102
		c-2.825,1.773-6.872,1.805-9.529-0.159c-0.517-0.382-1.164-0.539-1.778-0.349c-0.928,0.288-2.261,0.319-3.393,0.048
		c-0.318-0.076-0.561-0.17-0.745-0.264c-0.443-0.227-0.955-0.236-1.433-0.097c-0.321,0.093-0.659,0.172-1.003,0.244
		c-2.035,0.426-5.821-0.024-4.233-1.857c0.406-0.468,1.621-0.807,2.558-0.867c0.491-0.031,0.946-0.266,1.277-0.63
		c0.98-1.083,2.853-1.96,4.481-1.808c0.816,0.076,1.585-0.298,1.977-1.018c0.726-1.334,2.3-2.309,4.3-2.618
		C140.625,35.775,141.61,35.698,142.54,35.827z"/>
	<path id="Cloud_00000181776829578237344040000003105356484629497232_" style="fill:#EBEBEB;" d="M85.03,30.365
		c0.007-2.26,2.478-3.83,5.283-4.095c3.305-0.311,5.649,1.162,5.728,3.764c2.161-0.887,4.439-0.318,4.268,2.058
		c0.562-0.648,2.666-0.63,3.42-0.449c0.798,0.191,1.606,0.91,1.882,1.604c0.223,0.562,0.235,0.822,0.196,1.216
		c1.26-0.413,4.125-0.665,4.842,0.491c1.275,2.057-3.82,2.122-4.848,1.5c-0.217,1.601-5.694,1.863-7.02,0.386
		c-1.036,1.043-2.523,1.274-4.129,1.369c-2.709,0.161-4.371-0.756-6.485-1.836c-2.298,1.948-6.274,1.984-8.344-0.245
		c-0.528,0.499-1.983,0.653-3.149,0.374c-0.765-0.183-0.942-0.509-0.942-0.509c-0.41,0.19-0.899,0.316-1.406,0.422
		c-1.502,0.315-4.297-0.017-3.125-1.371c0.399-0.461,1.862-0.753,2.481-0.61c0.655-1.289,3.286-2.51,4.795-1.421
		c0.058-1.561,1.486-2.783,3.495-3.093C82.646,29.818,84.262,29.727,85.03,30.365z"/>
	<path id="Cloud_00000153686140545296289260000010568272451194730155_" style="fill:#EBEBEB;" d="M451.71,39.747
		c0.007-2.26,2.478-3.83,5.283-4.095c3.305-0.311,5.649,1.162,5.728,3.764c2.161-0.887,4.44-0.318,4.269,2.058
		c0.562-0.648,2.665-0.63,3.42-0.449c0.798,0.191,1.606,0.91,1.882,1.604c0.223,0.562,0.235,0.822,0.196,1.216
		c1.26-0.413,4.125-0.665,4.842,0.491c1.275,2.057-3.82,2.122-4.848,1.5c-0.217,1.601-5.694,1.863-7.02,0.386
		c-1.036,1.043-2.523,1.274-4.129,1.369c-2.709,0.161-4.371-0.756-6.484-1.836c-2.298,1.948-6.274,1.984-8.344-0.245
		c-0.529,0.499-1.983,0.653-3.149,0.374c-0.765-0.183-0.942-0.509-0.942-0.509c-0.41,0.19-0.899,0.316-1.406,0.422
		c-1.502,0.315-4.297-0.017-3.125-1.371c0.399-0.461,1.862-0.753,2.481-0.61c0.655-1.289,3.286-2.51,4.795-1.421
		c0.058-1.561,1.486-2.783,3.495-3.093C449.326,39.2,450.942,39.109,451.71,39.747z"/>
</g>
<g id="Shadows">
	<polygon id="Shadow_00000066474076475552641180000006707179655527754937_" style="fill:#E0E0E0;" points="239.721,471.907 
		401.728,378.368 304.541,322.259 142.742,416.022 	"/>
	<path id="Shadow_15_" style="fill:#E0E0E0;" d="M101.592,451.156c7.558,4.363,19.81,4.363,27.368,0
		c7.557-4.363,7.557-11.437,0-15.801c-7.557-4.363-19.81-4.363-27.368,0C94.035,439.719,94.035,446.793,101.592,451.156z"/>
	<path id="Shadow_00000134937362233017337540000002344184414688638371_" style="fill:#E0E0E0;" d="M377.747,333.131
		c17.02,9.826,44.614,9.826,61.633,0c17.02-9.826,17.02-25.758,0-35.584c-17.02-9.826-44.613-9.826-61.633,0
		C360.728,307.373,360.728,323.305,377.747,333.131z"/>
	<path id="Shadow_00000176759677783153488210000014048556473809801636_" style="fill:#E0E0E0;" d="M59.166,471.195
		c7.558,4.363,19.81,4.363,27.368,0c7.557-4.363,7.557-11.437,0-15.801c-7.557-4.363-19.81-4.363-27.368,0
		C51.609,459.758,51.609,466.832,59.166,471.195z"/>
	<path id="Shadow_00000057117378758366163030000012405942236592776369_" style="fill:#E0E0E0;" d="M141.607,455.739l7.748-4.493
		c2.335-1.354,6.123-1.358,8.46-0.008l2.699,1.559l10.081-5.821c0.911-0.526,2.387-0.526,3.298,0l0.068,0.039
		c0.911,0.526,0.911,1.378,0,1.904l-10.082,5.821l0.561,0.324c2.337,1.35,2.339,3.541,0.002,4.894l-7.752,4.49l-11.312,6.537
		l-15.089-8.712L141.607,455.739z"/>
</g>
<g id="Tree">
	<g id="Tree_18_">
		<g>
			<path style="fill:#fbc26b;" d="M417.237,152.742c0.992,7.737-8.434,14.187-16.62,12.698c0.496,4.661-6.054,7.342-8.682,4.962
				c2.629,3.439,6.929,14.297,0,20.208c-6.929,5.911-15.857,2.534-15.857,2.534s-3.257,8.083-15.563,5.912
				c-12.305-2.172-14.839-14.718-13.391-19.182c-8.075,4.662-24.49,1.086-31.849-9.772c-7.359-10.858-6.756-24.356-0.483-30.508
				c-4.286-4.044-2.91-10.463-0.376-13.479c2.533-3.016,6.162-2.74,6.162-2.74s-3.466-4,0.609-6.717
				c-5.791-3.378-8.445-15.442,0.844-24.49c9.289-9.048,23.194-5.437,23.194-5.437s-2.844-8.951,3.294-16.882
				c5.286-6.83,14.052-6.145,14.052-6.145s-0.38-6.416,5.898-6.74c-3.64-6.605-0.186-14.956,4.599-18.613
				c8.891-6.796,31.548-8.607,31.415,8.334c9.205-7.07,23.033,2.489,20.817,11.944c7.597-6.608,19.87,2.33,17.01,11.461
				c10.997-3.127,22.469,9.946,16.333,22.085c4.278-2.47,13.97-0.696,13.707,7.472c5.549-1.689,11.702,1.595,13.271,7.386
				c1.568,5.791-0.892,10.228-5.233,13.123c4.135-0.603,6.67,6.303,3.906,8.324c8.083,0,13.564,16.927,3.697,22.524
				c5.67,3.981,8.519,28.162-8.854,37.934c-17.372,9.772-42.337,3.855-43.616-11.997c-7.359-1.81-10.462-9.735-5.516-14.078
				C425.178,164.793,417.698,158.761,417.237,152.742z"/>
			<path style="opacity:0.2;fill:#FFFFFF;" d="M417.237,152.742c0.992,7.737-8.434,14.187-16.62,12.698
				c0.496,4.661-6.054,7.342-8.682,4.962c2.629,3.439,6.929,14.297,0,20.208c-6.929,5.911-15.857,2.534-15.857,2.534
				s-3.257,8.083-15.563,5.912c-12.305-2.172-14.839-14.718-13.391-19.182c-8.075,4.662-24.49,1.086-31.849-9.772
				c-7.359-10.858-6.756-24.356-0.483-30.508c-4.286-4.044-2.91-10.463-0.376-13.479c2.533-3.016,6.162-2.74,6.162-2.74
				s-3.466-4,0.609-6.717c-5.791-3.378-8.445-15.442,0.844-24.49c9.289-9.048,23.194-5.437,23.194-5.437s-2.844-8.951,3.294-16.882
				c5.286-6.83,14.052-6.145,14.052-6.145s-0.38-6.416,5.898-6.74c-3.64-6.605-0.186-14.956,4.599-18.613
				c8.891-6.796,31.548-8.607,31.415,8.334c9.205-7.07,23.033,2.489,20.817,11.944c7.597-6.608,19.87,2.33,17.01,11.461
				c10.997-3.127,22.469,9.946,16.333,22.085c4.278-2.47,13.97-0.696,13.707,7.472c5.549-1.689,11.702,1.595,13.271,7.386
				c1.568,5.791-0.892,10.228-5.233,13.123c4.135-0.603,6.67,6.303,3.906,8.324c8.083,0,13.564,16.927,3.697,22.524
				c5.67,3.981,8.519,28.162-8.854,37.934c-17.372,9.772-42.337,3.855-43.616-11.997c-7.359-1.81-10.462-9.735-5.516-14.078
				C425.178,164.793,417.698,158.761,417.237,152.742z"/>
			<path style="fill:#fbc26b;" d="M479.136,188.938c17.372-9.772,14.524-33.953,8.854-37.934c9.866-5.597,4.386-22.524-3.697-22.524
				c2.764-2.021,0.229-8.927-3.906-8.324c4.341-2.895,6.802-7.333,5.233-13.123c-0.781-2.885-2.701-5.146-5.117-6.482
				c3.53,5.682,2.087,15.59-7.384,17.62c-8.166,1.75-12.505-4.087-12.505-4.087s-1.996,3.457-10.88,2.351
				c-8.885-1.105-13.327-9.87-10.975-16.925c4.181-7.055-2.351-15.679-10.785-14.373c0.406,17.768-14.967,23.14-29.456,16.202
				c7.055,17.769-8.362,26.392-16.201,18.553c-2.613,6.533-11.236,5.749-15.156,1.829c-3.919,4.181-16.201,0-16.201-9.93
				c-7.317,9.146-20.382,6.533-21.427-3.136c-5.569,7.304-12.538,3.202-13.265,0.33c0.721,3.472,2.56,6.295,4.921,7.672
				c-4.075,2.717-0.609,6.717-0.609,6.717s-3.628-0.276-6.162,2.74c-2.533,3.016-3.909,9.436,0.376,13.479
				c-6.273,6.153-6.876,19.65,0.483,30.508c7.359,10.857,23.774,14.434,31.849,9.772c-1.448,4.464,1.086,17.01,13.391,19.182
				c12.305,2.171,15.563-5.912,15.563-5.912s8.928,3.378,15.857-2.533c6.929-5.911,2.628-16.769,0-20.208
				c2.628,2.38,9.178-0.301,8.682-4.962c8.186,1.488,17.613-4.961,16.621-12.698c0.461,6.019,7.941,12.051,12.767,10.12
				c-4.947,4.343-1.843,12.269,5.516,14.078C436.799,192.793,461.764,198.71,479.136,188.938z"/>
			<path style="opacity:0.2;fill:#FFFFFF;" d="M382.507,138.762c0,0-15.603,4.623-19.937-6.549
				c-7.952,4.591-22.825,3.467-27.833-6.549c-8.476,0-13.552-9.007-13.552-9.007c-4.075,2.717-0.609,6.717-0.609,6.717
				s-3.628-0.276-6.162,2.74c-2.533,3.016-3.909,9.436,0.376,13.479c-0.664,0.652-1.25,1.401-1.785,2.206
				c-2.596,6.801,6.34,11.977,11.907,8.714c-2.119,6.934,5.779,27.737,27.738,19.069c13.098,8.283,26.389-1.733,24.655-20.033
				C383.835,149.549,386.937,142.422,382.507,138.762z"/>
			<path style="opacity:0.2;fill:#FFFFFF;" d="M465.526,157.254c6.731-8.019,4.815-16.373,4.815-16.373s-6.605,9.591-20.418,3.708
				c-13.813-5.883-6.357-19.503-6.357-19.503s-10.594,0.862-8.668-8.429c-3.423,1.708-8.668-0.239-8.668-6.98
				c-1.521,11.675-11.35,17.318-23.692,14.639c8.283,3.082,7.705,9.499,1.926,14.092c-6.533,6.534-5.738,22.914,9.937,22.326
				c2.047-2.219,3.217-5.008,2.834-7.991c0.461,6.019,7.941,12.051,12.767,10.12c0,0,0,0,0,0l0,0c0,0,4.51,4.022,9.904-1.178
				C443.857,165.633,458.795,165.272,465.526,157.254z"/>
		</g>
		<path style="fill:#37474F;" d="M447.865,187.05c0,0,12.346-18.033,11.664-19.439c-0.682-1.406-11.664,16.523-18.467,21.383
			c-6.804,4.86-20.412,13.122-23.814,13.122c-3.402,0-3.645-4.131-2.43-12.15c1.215-8.019,1.485-10.205,7.06-17.495
			c5.575-7.29,21.563-27.023,20.641-27.944c-0.922-0.922-21.198,24.97-26.243,28.187c-4.926,3.141-9.257-17.982-10.935-17.982
			c-1.678,0,4.826,15.117,5.233,22.164c0.407,7.047-0.373,15.5-3.532,17.687c-3.159,2.187-11.784-4.617-17.372-10.692
			c-5.589-6.075-5.709-32.318-7.899-32.318c-2.19,0,1.408,24.087,1.408,26.412c0,5.066-21.359-8.806-25.221-8.187
			c-3.863,0.619,19.665,9.009,28.916,17.982c8.057,7.814,9.435,10.274,12.184,16.062c2.918,6.144,3.768,14.069,3.768,36.668
			c0,22.598-6.088,58.805-6.088,72.808c0,1.858,1.227,3.715,3.682,5.132c4.909,2.834,12.868,2.834,17.777,0
			c2.455-1.417,3.682-3.275,3.682-5.132l0,0v0l0,0c0-14.003-6.088-50.209-6.088-72.808s0.915-31.033,7.626-35.807
			c6.711-4.773,18.165-13.221,23.234-14.736c5.069-1.515,19.683,0.976,19.683,0C466.332,188.991,447.865,187.05,447.865,187.05z"/>
		<path style="fill:#fbc26b;" d="M388.611,300.237c0.601,0.326,3.933,3.545,4.844,4.811c-1.069-5.173-2.304-10.312-3.702-15.406
			c2.603,2.182,5.161,6.981,6.795,11.212c1.633,4.232,3.208,8.718,4.137,13.157c0.352-0.933,0.703-1.865,1.054-2.798
			c1.508,2.572,2.236,5.595,2.061,8.571c-0.011,0.187-10.091-2.376-10.091-2.376s-0.475-1.277-1.261-3.742
			C391.242,309.886,388.585,300.32,388.611,300.237z"/>
	</g>
</g>
<g id="Wall">
	<g id="Wall_3_">
		<polygon style="fill:#E0E0E0;" points="29.191,202.395 328.364,29.465 315.497,21.678 29.191,186.977 		"/>
		<polygon style="fill:#FFFFFF;" points="29.191,202.4 29.191,462.053 328.089,289.485 328.089,29.831 		"/>
		<g id="Wall_2_">
			<path style="fill:#F5F5F5;" d="M256.318,130.606v6.069c0,1.913,1.343,2.688,2.999,1.731l27.764-16.029
				c1.656-0.957,2.999-3.282,2.999-5.195v-6.069c0-1.913-1.343-2.688-2.999-1.731l-27.764,16.029
				C257.661,126.368,256.318,128.694,256.318,130.606z"/>
			<path style="fill:#F5F5F5;" d="M247.74,248.979v6.069c0,1.912,1.343,2.688,2.999,1.732l27.764-16.029
				c1.656-0.956,2.999-3.282,2.999-5.195v-6.069c0-1.912-1.343-2.688-2.999-1.731l-27.764,16.029
				C249.083,244.741,247.74,247.067,247.74,248.979z"/>
			<path style="fill:#EBEBEB;" d="M193.033,234.577v6.069c0,1.912,1.343,2.688,2.999,1.731l27.763-16.029
				c1.656-0.956,2.999-3.282,2.999-5.195v-6.069c0-1.913-1.343-2.688-2.999-1.731l-27.763,16.029
				C194.376,230.339,193.033,232.664,193.033,234.577z"/>
			<path style="fill:#EBEBEB;" d="M246.467,187.242v6.069c0,1.912,1.343,2.688,2.999,1.731l27.763-16.029
				c1.657-0.956,2.999-3.282,2.999-5.194v-6.069c0-1.913-1.342-2.688-2.999-1.731l-27.763,16.029
				C247.81,183.004,246.467,185.329,246.467,187.242z"/>
			<path style="fill:#EBEBEB;" d="M230.86,277.245v6.069c0,1.912,1.343,2.688,2.999,1.731l27.763-16.029
				c1.656-0.956,2.999-3.282,2.999-5.194v-6.069c0-1.913-1.343-2.688-2.999-1.731l-27.763,16.029
				C232.202,273.007,230.86,275.333,230.86,277.245z"/>
			<path style="fill:#F5F5F5;" d="M296.038,137.921l-27.763,16.029c-1.656,0.956-2.999,3.282-2.999,5.195v6.069
				c0,1.913,1.343,2.688,2.999,1.732l27.763-16.029c1.656-0.956,2.999-3.282,2.999-5.195v-6.068
				C299.037,137.74,297.695,136.965,296.038,137.921z"/>
			<path style="fill:#F5F5F5;" d="M306.773,82.141L279.01,98.171c-1.656,0.956-2.999,3.282-2.999,5.195v6.069
				c0,1.913,1.343,2.688,2.999,1.732l27.763-16.029c1.656-0.956,2.999-3.282,2.999-5.195v-6.068
				C309.772,81.96,308.429,81.185,306.773,82.141z"/>
			<path style="fill:#F5F5F5;" d="M259.262,159.154l-27.763,16.029c-1.656,0.956-2.999,3.282-2.999,5.195v6.068
				c0,1.913,1.342,2.688,2.999,1.732l27.763-16.029c1.657-0.956,2.999-3.282,2.999-5.195v-6.068
				C262.261,158.973,260.919,158.198,259.262,159.154z"/>
			<path style="fill:#F5F5F5;" d="M152.585,254.466l-27.763,16.029c-1.656,0.956-2.999,3.282-2.999,5.195v6.069
				c0,1.913,1.342,2.688,2.999,1.732l27.763-16.029c1.657-0.956,2.999-3.282,2.999-5.195v-6.069
				C155.585,254.285,154.242,253.51,152.585,254.466z"/>
			<path style="fill:#F5F5F5;" d="M171.867,226.849l-27.763,16.029c-1.656,0.956-2.999,3.282-2.999,5.195v6.068
				c0,1.913,1.342,2.688,2.999,1.732l27.763-16.029c1.656-0.956,2.999-3.282,2.999-5.195v-6.069
				C174.866,226.668,173.523,225.893,171.867,226.849z"/>
			<path style="fill:#F5F5F5;" d="M31.012,310.31v6.069c0,1.913,1.343,2.688,2.999,1.732l27.764-16.029
				c1.657-0.956,2.999-3.282,2.999-5.195v-6.069c0-1.913-1.343-2.688-2.999-1.732l-27.764,16.029
				C32.355,306.071,31.012,308.397,31.012,310.31z"/>
			<path style="fill:#F5F5F5;" d="M185.314,152.427l-27.763,16.029c-1.657,0.956-2.999,3.282-2.999,5.195v6.068
				c0,1.913,1.342,2.688,2.999,1.732l27.763-16.029c1.656-0.956,2.999-3.282,2.999-5.195v-6.069
				C188.314,152.245,186.971,151.47,185.314,152.427z"/>
			<path style="fill:#EBEBEB;" d="M97.896,236.416l-27.763,16.029c-1.657,0.956-2.999,3.282-2.999,5.195v6.069
				c0,1.913,1.342,2.688,2.999,1.732l27.763-16.029c1.656-0.956,2.999-3.282,2.999-5.195v-6.068
				C100.895,236.235,99.553,235.46,97.896,236.416z"/>
			<path style="fill:#EBEBEB;" d="M166.348,181.883l-27.763,16.029c-1.657,0.956-2.999,3.282-2.999,5.195v6.069
				c0,1.913,1.342,2.688,2.999,1.731l27.763-16.029c1.656-0.957,2.999-3.282,2.999-5.195v-6.069
				C169.348,181.702,168.005,180.926,166.348,181.883z"/>
			<path style="fill:#EBEBEB;" d="M283.862,228.159v6.069c0,1.913,1.343,2.688,2.999,1.732l27.763-16.029
				c1.657-0.956,3-3.282,3-5.195v-6.068c0-1.913-1.343-2.688-3-1.732l-27.763,16.029
				C285.205,223.92,283.862,226.246,283.862,228.159z"/>
			<path style="fill:#F5F5F5;" d="M304.397,260.794l17.908-10.339v12.995l-17.908,10.339c-1.657,0.956-2.999,0.181-2.999-1.731
				v-6.069C301.397,264.076,302.74,261.75,304.397,260.794z"/>
			<path style="fill:#F5F5F5;" d="M304.397,183.206l17.908-10.339v12.995L304.397,196.2c-1.657,0.956-2.999,0.181-2.999-1.731V188.4
				C301.397,186.487,302.74,184.162,304.397,183.206z"/>
			<path style="fill:#F5F5F5;" d="M304.397,119.385l17.908-10.339v12.995l-17.908,10.339c-1.657,0.957-2.999,0.181-2.999-1.731
				v-6.069C301.397,122.667,302.74,120.341,304.397,119.385z"/>
			<path style="fill:#F5F5F5;" d="M43.189,251.748l-13.998,8.081v12.995l13.998-8.081c1.657-0.956,2.999-3.282,2.999-5.195v-6.069
				C46.188,251.566,44.846,250.791,43.189,251.748z"/>
			<path style="fill:#F5F5F5;" d="M223.795,130.21l-27.763,16.029c-1.657,0.957-2.999,3.282-2.999,5.195v6.069
				c0,1.913,1.342,2.688,2.999,1.731l27.763-16.029c1.657-0.956,2.999-3.282,2.999-5.194v-6.069
				C226.795,130.028,225.452,129.253,223.795,130.21z"/>
			<path style="fill:#F5F5F5;" d="M185.314,281.591l-27.763,16.03c-1.657,0.956-2.999,3.282-2.999,5.195v6.069
				c0,1.913,1.342,2.688,2.999,1.732l27.763-16.029c1.656-0.956,2.999-3.282,2.999-5.195v-6.069
				C188.314,281.411,186.971,280.635,185.314,281.591z"/>
			<path style="fill:#EBEBEB;" d="M170.707,308.812l-27.763,16.029c-1.657,0.957-2.999,3.282-2.999,5.195v6.069
				c0,1.913,1.342,2.688,2.999,1.731l27.763-16.029c1.657-0.957,2.999-3.282,2.999-5.195v-6.069
				C173.706,308.631,172.363,307.856,170.707,308.812z"/>
			<path style="fill:#F5F5F5;" d="M223.795,259.375l-27.763,16.029c-1.657,0.957-2.999,3.282-2.999,5.195v6.069
				c0,1.913,1.342,2.688,2.999,1.731l27.763-16.029c1.657-0.956,2.999-3.282,2.999-5.194v-6.069
				C226.795,259.194,225.452,258.418,223.795,259.375z"/>
			<path style="fill:#F5F5F5;" d="M263.347,302.461v6.069c0,1.912,1.343,2.688,2.999,1.732l27.764-16.029
				c1.656-0.957,2.999-3.282,2.999-5.195v-6.069c0-1.912-1.343-2.688-2.999-1.731l-27.764,16.029
				C264.69,298.223,263.347,300.549,263.347,302.461z"/>
			<path style="fill:#F5F5F5;" d="M132.587,329.915l-27.763,16.029c-1.657,0.956-2.999,3.282-2.999,5.195v6.068
				c0,1.913,1.342,2.688,2.999,1.732l27.763-16.029c1.656-0.956,2.999-3.282,2.999-5.195v-6.069
				C135.586,329.734,134.243,328.959,132.587,329.915z"/>
			<path style="fill:#F5F5F5;" d="M31.012,391.784v6.069c0,1.913,1.343,2.688,2.999,1.732l27.764-16.029
				c1.657-0.956,2.999-3.282,2.999-5.195v-6.069c0-1.913-1.343-2.688-2.999-1.732l-27.764,16.029
				C32.355,387.545,31.012,389.871,31.012,391.784z"/>
			<path style="fill:#F5F5F5;" d="M80.822,319.557v6.069c0,1.913,1.343,2.688,2.999,1.732l27.764-16.029
				c1.657-0.956,2.999-3.282,2.999-5.195v-6.069c0-1.913-1.342-2.688-2.999-1.732l-27.764,16.029
				C82.166,315.319,80.822,317.645,80.822,319.557z"/>
			<path style="fill:#EBEBEB;" d="M91.275,291.864l-27.763,16.029c-1.657,0.956-2.999,3.282-2.999,5.195v6.069
				c0,1.913,1.342,2.688,2.999,1.732l27.763-16.029c1.657-0.956,2.999-3.282,2.999-5.195v-6.069
				C94.274,291.683,92.931,290.908,91.275,291.864z"/>
			<path style="fill:#F5F5F5;" d="M43.189,333.221l-13.998,8.081v12.995l13.998-8.081c1.657-0.957,2.999-3.282,2.999-5.195v-6.069
				C46.188,333.04,44.846,332.265,43.189,333.221z"/>
			<path style="fill:#EBEBEB;" d="M70.809,408.516l-27.763,16.03c-1.657,0.956-2.999,3.282-2.999,5.195v6.069
				c0,1.913,1.342,2.688,2.999,1.732l27.763-16.029c1.656-0.956,2.999-3.282,2.999-5.195v-6.069
				C73.808,408.335,72.466,407.56,70.809,408.516z"/>
			<path style="fill:#EBEBEB;" d="M166.348,355.654l-27.763,16.029c-1.656,0.956-2.999,3.282-2.999,5.195v6.069
				c0,1.913,1.342,2.688,2.999,1.731l27.763-16.029c1.657-0.957,2.999-3.282,2.999-5.195v-6.069
				C169.348,355.473,168.005,354.698,166.348,355.654z"/>
			<path style="fill:#F5F5F5;" d="M223.795,313.427l-27.763,16.029c-1.657,0.957-2.999,3.282-2.999,5.195v6.069
				c0,1.913,1.342,2.688,2.999,1.731l27.763-16.029c1.657-0.956,2.999-3.282,2.999-5.194v-6.069
				C226.795,313.246,225.452,312.471,223.795,313.427z"/>
			<path style="fill:#F5F5F5;" d="M67.134,225.417v6.069c0,1.912,1.342,2.688,2.999,1.731l27.764-16.029
				c1.657-0.956,2.999-3.282,2.999-5.195v-6.069c0-1.912-1.343-2.688-2.999-1.731l-27.763,16.029
				C68.476,221.179,67.134,223.504,67.134,225.417z"/>
			<path style="fill:#F5F5F5;" d="M31.012,219.032v6.069c-0.001,1.912,1.342,2.688,2.999,1.731l27.764-16.029
				c1.657-0.956,2.999-3.282,2.999-5.195v-6.069c0-1.912-1.343-2.688-2.999-1.731l-27.763,16.029
				C32.355,214.794,31.012,217.12,31.012,219.032z"/>
			<path style="fill:#F5F5F5;" d="M172.229,136.3v6.069c-0.001,1.912,1.342,2.688,2.999,1.731l27.764-16.029
				c1.657-0.957,2.999-3.282,2.999-5.195v-6.069c0-1.912-1.343-2.688-2.999-1.731l-27.763,16.029
				C173.572,132.062,172.229,134.387,172.229,136.3z"/>
		</g>
		<g>
			<polygon style="fill:#E0E0E0;" points="36.304,458.247 35.864,457.485 328.034,288.406 327.65,30.594 29.192,202.902 
				29.191,201.886 328.529,29.069 328.53,29.83 328.916,288.914 328.695,289.041 			"/>
		</g>
	</g>
</g>
<g id="Paint_00000155130545956801286060000005947249978282681503_">
	<g id="Paint">
		<path style="fill:#fbc26b;" d="M175.642,201.524l-0.776-0.448l-27.643,15.977l0.001-55.389l16.247-9.38l0.001-26.002l-0.776-0.448
			L29.191,202.4v259.654l0,0.864l48.977-28.244v-78.356l16.25-9.38v-32.833l28.434-16.417l0-33.13l52.791-30.482V201.524z"/>
		<polygon style="opacity:0.7;fill:#FFFFFF;" points="29.192,462.917 78.168,434.673 78.168,356.317 94.418,346.937 94.418,314.104 
			122.851,297.687 122.851,264.557 175.642,234.075 175.642,201.524 147.223,217.949 147.223,161.664 163.47,152.283 
			163.471,126.281 29.192,203.264 		"/>
		<g style="opacity:0.2;">
			<g>
				<path style="fill:#fbc26b;" d="M171.867,226.849l-9.543,5.589l-9.498,5.668l-4.745,2.841l-2.373,1.42l-1.186,0.71
					c-0.403,0.234-0.719,0.46-1.035,0.767c-1.202,1.224-2.039,2.909-1.933,4.644l0.034,5.53l-0.725-0.418
					c2.794-1.659,5.635-3.234,8.454-4.85c2.821-1.611,5.646-3.216,8.491-4.785l8.518-4.739c2.835-1.588,5.689-3.142,8.507-4.757
					l-0.032,0.056l0.032-5.202c0.012-0.843,0.071-1.804-0.567-2.443c-0.299-0.315-0.746-0.449-1.175-0.424
					C172.658,226.473,172.243,226.639,171.867,226.849z M171.867,226.849c0.374-0.215,0.787-0.386,1.224-0.411
					c0.432-0.031,0.889,0.1,1.199,0.417c0.659,0.643,0.61,1.63,0.609,2.466l0.032,5.202l0,0.037l-0.033,0.019
					c-2.808,1.633-5.581,3.329-8.373,4.99l-8.363,5.008c-2.782,1.68-5.584,3.324-8.39,4.962c-2.808,1.633-5.593,3.306-8.427,4.897
					l-0.73,0.41l0.005-0.828l0.034-5.53c-0.044-0.942,0.182-1.994,0.586-2.863c0.404-0.889,0.967-1.702,1.694-2.37
					c0.353-0.329,0.803-0.625,1.206-0.839l1.208-0.672l2.416-1.345l4.833-2.689l9.658-5.391L171.867,226.849z"/>
			</g>
			<g>
				<path style="fill:#fbc26b;" d="M100.895,205.925c-0.005-0.506-0.105-1.025-0.382-1.452c-0.279-0.424-0.777-0.688-1.284-0.666
					c-0.508,0.002-0.988,0.21-1.42,0.469l-1.317,0.771l-5.267,3.083l-10.482,6.256l-10.471,6.256
					c-1.533,1.003-2.623,2.931-2.674,4.748l0.035,6.099c0.001,0.444,0.088,0.873,0.285,1.186c0.203,0.301,0.499,0.473,0.881,0.468
					c0.384,0.005,0.787-0.151,1.198-0.391l1.326-0.755l5.303-3.02l10.659-5.95l10.656-5.951c0.856-0.522,1.535-1.312,2.044-2.179
					c0.502-0.872,0.849-1.856,0.873-2.867L100.895,205.925z M100.895,205.925l0.035,6.103c-0.012,1.029-0.352,2.03-0.851,2.921
					c-0.507,0.886-1.184,1.698-2.063,2.249l-10.481,6.262l-10.482,6.256l-5.267,3.083l-1.317,0.771
					c-0.46,0.274-1.027,0.534-1.67,0.536c-0.642,0.034-1.35-0.335-1.702-0.89c-0.353-0.55-0.46-1.163-0.463-1.729l0.038-6.106
					c0.028-1.133,0.405-2.179,0.939-3.111c0.545-0.926,1.262-1.772,2.218-2.358l10.666-5.957l10.659-5.95l5.303-3.02l1.326-0.755
					c0.438-0.255,0.929-0.462,1.447-0.458c0.517-0.016,1.023,0.26,1.299,0.692C100.803,204.897,100.896,205.419,100.895,205.925z"/>
			</g>
			<g>
				<path style="fill:#fbc26b;" d="M126.136,164.946c-0.005-0.506-0.105-1.025-0.381-1.452c-0.279-0.424-0.777-0.688-1.284-0.666
					c-0.509,0.002-0.988,0.21-1.42,0.469l-1.317,0.771l-5.267,3.083l-10.482,6.256l-10.471,6.256
					c-1.533,1.003-2.622,2.931-2.674,4.748l0.035,6.099c0.001,0.445,0.088,0.874,0.285,1.186c0.203,0.301,0.499,0.473,0.881,0.468
					c0.384,0.005,0.787-0.151,1.198-0.391l1.326-0.755l5.304-3.02l10.659-5.95l10.656-5.951c0.856-0.522,1.535-1.312,2.044-2.179
					c0.502-0.872,0.849-1.856,0.873-2.867L126.136,164.946z M126.136,164.946l0.035,6.103c-0.012,1.029-0.352,2.03-0.851,2.921
					c-0.507,0.886-1.184,1.698-2.063,2.249l-10.48,6.262l-10.482,6.256l-5.267,3.083l-1.317,0.771
					c-0.46,0.274-1.027,0.534-1.67,0.536c-0.642,0.034-1.35-0.335-1.702-0.89c-0.353-0.55-0.46-1.163-0.463-1.729l0.038-6.106
					c0.028-1.133,0.405-2.179,0.939-3.111c0.545-0.926,1.262-1.772,2.218-2.358l10.665-5.957l10.659-5.95l5.303-3.02l1.326-0.755
					c0.438-0.255,0.929-0.462,1.448-0.458c0.517-0.017,1.023,0.26,1.299,0.692C126.043,163.919,126.136,164.441,126.136,164.946z"/>
			</g>
			<g>
				<path style="fill:#fbc26b;" d="M97.896,236.416l-10.534,6.166l-10.482,6.256l-5.239,3.132l-1.31,0.783
					c-0.401,0.239-0.761,0.552-1.083,0.905c-0.642,0.709-1.121,1.574-1.421,2.474c-0.146,0.451-0.239,0.917-0.252,1.374l0.003,1.511
					l0.018,3.051l0.009,1.526c-0.003,0.475,0.064,0.902,0.261,1.233c0.187,0.333,0.484,0.504,0.848,0.53
					c0.369,0.013,0.786-0.124,1.17-0.348l10.606-6.041l10.659-5.95l5.332-2.971c0.883-0.517,1.829-0.91,2.502-1.657
					c0.69-0.722,1.234-1.599,1.555-2.553c0.364-0.951,0.292-1.979,0.304-2.996l0.018-3.051l0.009-1.526
					c0.008-0.504-0.052-1.023-0.304-1.464c-0.235-0.45-0.712-0.749-1.219-0.779C98.837,235.995,98.337,236.168,97.896,236.416z
					 M97.896,236.416c0.438-0.253,0.936-0.433,1.45-0.414c0.513,0.023,1.005,0.322,1.249,0.779c0.263,0.447,0.329,0.975,0.327,1.483
					l0.009,1.526l0.018,3.051c0,1.006,0.087,2.06-0.274,3.042c-0.325,0.974-0.836,1.891-1.531,2.659
					c-0.687,0.805-1.66,1.247-2.507,1.778l-5.239,3.132l-10.482,6.256l-10.535,6.164c-0.494,0.277-1.076,0.493-1.729,0.462
					c-0.656-0.027-1.329-0.454-1.621-1.027c-0.319-0.557-0.378-1.178-0.371-1.714l0.009-1.526l0.018-3.051l0.016-1.541
					c0.023-0.56,0.141-1.099,0.313-1.612c0.346-1.027,0.922-1.955,1.665-2.737c0.375-0.387,0.801-0.738,1.284-1.006l1.333-0.743
					l5.332-2.971l10.658-5.95L97.896,236.416z"/>
			</g>
			<g>
				<path style="fill:#fbc26b;" d="M135.586,203.107c0.014,1.709,0.01,3.417,0.05,5.126c0.026,0.837-0.07,1.764,0.467,2.411
					c0.503,0.68,1.467,0.619,2.155,0.225l4.357-2.678c1.453-0.902,2.908-1.798,4.377-2.672l-0.231,0.4
					c-0.063-4.332-0.037-8.663,0.098-12.995l0.547,0.316l-7.14,3.841c-0.592,0.324-1.198,0.631-1.776,0.971
					c-0.572,0.342-1.062,0.816-1.48,1.34C136.187,200.449,135.623,201.752,135.586,203.107z M135.586,203.107
					c0.015-1.359,0.58-2.662,1.373-3.751c0.404-0.544,0.881-1.043,1.458-1.417l1.726-1.067l6.897-4.263l0.527-0.326l0.02,0.642
					c0.135,4.332,0.16,8.663,0.098,12.995l-0.004,0.273l-0.227,0.127c-1.491,0.835-2.995,1.647-4.502,2.454l-4.534,2.426
					c-0.409,0.179-0.863,0.308-1.328,0.252c-0.463-0.045-0.907-0.298-1.159-0.68c-0.544-0.774-0.391-1.71-0.395-2.54
					C135.576,206.524,135.572,204.815,135.586,203.107z"/>
			</g>
			<g>
				<path style="fill:#fbc26b;" d="M94.418,314.104l9.919-5.986l10.063-5.977l-0.184,0.319l-0.024-2.122
					c0.014-0.687-0.1-1.313-0.482-1.685c-0.361-0.364-0.958-0.384-1.524-0.136c-0.272,0.109-0.567,0.296-0.88,0.476l-0.917,0.534
					l-7.337,4.272c-4.886,2.857-9.783,5.694-14.702,8.493l-3.684,2.109c-0.647,0.355-1.162,0.66-1.622,1.15
					c-0.46,0.468-0.841,1.025-1.149,1.614c-0.293,0.594-0.525,1.228-0.604,1.87c-0.075,0.605-0.029,1.377-0.046,2.066l-0.044,4.245
					c-0.028,0.687,0.06,1.324,0.447,1.732c0.368,0.405,1.014,0.434,1.6,0.19c1.183-0.586,2.453-1.358,3.675-2.028l7.419-4.129
					l-0.075,0.13L94.418,314.104z M94.418,314.104l0.151,7.136l0.002,0.084l-0.077,0.046l-7.285,4.361
					c-1.244,0.716-2.376,1.455-3.711,2.151c-0.359,0.149-0.761,0.25-1.186,0.219c-0.423-0.026-0.86-0.214-1.167-0.525
					c-0.629-0.631-0.708-1.533-0.701-2.232l-0.044-4.245c0.015-0.725-0.046-1.373,0.038-2.175c0.091-0.766,0.349-1.482,0.676-2.156
					c0.342-0.667,0.763-1.294,1.291-1.84c0.504-0.56,1.218-0.991,1.809-1.316l3.668-2.136c4.883-2.861,9.789-5.683,14.706-8.486
					l7.368-4.218l0.921-0.527c0.301-0.169,0.605-0.365,0.99-0.521c0.37-0.149,0.785-0.25,1.227-0.215
					c0.439,0.029,0.893,0.229,1.206,0.555c0.64,0.661,0.701,1.574,0.679,2.273l-0.024,2.122l-0.002,0.217l-0.182,0.102
					l-10.104,5.667L94.418,314.104z"/>
			</g>
			<g>
				<path style="fill:#fbc26b;" d="M121.823,275.69c0.015,1.408,0.04,2.817,0.149,4.225c0.05,0.695,0.081,1.429,0.146,2.092
					c0.08,0.643,0.411,1.217,0.902,1.365l-0.589,0.385c-0.095-1.875-0.097-3.75-0.024-5.626c0.03-0.938,0.113-1.875,0.166-2.813
					l0.182-2.813l0.179,0.052C122.291,273.466,121.843,274.555,121.823,275.69z M121.823,275.69
					c0.005-1.135,0.405-2.235,0.946-3.237l0.158-0.291l0.022,0.343l0.182,2.813c0.054,0.938,0.137,1.875,0.166,2.813
					c0.073,1.875,0.071,3.75-0.024,5.626l-0.034,0.661l-0.556-0.276c-0.856-0.425-1.138-1.362-1.133-2.094
					c0.022-0.745,0.084-1.42,0.124-2.133C121.783,278.507,121.808,277.099,121.823,275.69z"/>
			</g>
			<g>
				<path style="fill:#fbc26b;" d="M94.274,299.665l-0.038-6.103c-0.011-0.5-0.11-1.015-0.394-1.425
					c-0.279-0.41-0.771-0.656-1.267-0.623c-0.5,0.007-0.967,0.225-1.399,0.48l-1.317,0.771l-10.482,6.256l-10.481,6.257l-5.252,3.08
					c-1.513,1.005-2.596,2.931-2.633,4.731l-0.033,6.099c0.003,0.446,0.091,0.885,0.303,1.196c0.211,0.306,0.528,0.48,0.922,0.465
					c0.397,0.001,0.801-0.17,1.219-0.412l1.326-0.755l10.659-5.95l10.659-5.949l5.3-3.024c0.86-0.533,1.537-1.33,2.044-2.204
					C93.912,301.676,94.258,300.685,94.274,299.665z M94.274,299.665c-0.004,1.021-0.338,2.019-0.831,2.907
					c-0.5,0.884-1.17,1.695-2.038,2.248l-5.265,3.088l-10.481,6.257l-10.482,6.256l-1.317,0.771
					c-0.453,0.267-1.009,0.538-1.639,0.547c-0.626,0.048-1.333-0.297-1.688-0.838c-0.367-0.535-0.47-1.143-0.483-1.706l-0.036-6.107
					c0.019-1.143,0.394-2.196,0.927-3.135c0.543-0.933,1.258-1.785,2.216-2.383l5.312-3.032l10.659-5.949l10.659-5.95l1.326-0.755
					c0.44-0.253,0.932-0.478,1.46-0.479c0.525-0.03,1.056,0.243,1.343,0.68c0.293,0.436,0.386,0.967,0.392,1.476L94.274,299.665z"/>
			</g>
			<g>
				<path style="fill:#fbc26b;" d="M34.011,399.584l10.534-6.166l10.482-6.256l5.239-3.132l1.31-0.783
					c0.402-0.239,0.761-0.552,1.083-0.905c0.642-0.709,1.121-1.574,1.42-2.474c0.146-0.451,0.239-0.917,0.252-1.375l-0.003-1.51
					l-0.018-3.051l-0.009-1.526c0.003-0.476-0.064-0.903-0.26-1.233c-0.187-0.334-0.484-0.504-0.848-0.53
					c-0.369-0.013-0.786,0.124-1.17,0.348l-10.606,6.041l-10.659,5.95l-5.332,2.971c-0.883,0.517-1.829,0.91-2.502,1.658
					c-0.69,0.722-1.234,1.599-1.555,2.552c-0.365,0.951-0.292,1.979-0.304,2.996l-0.018,3.051l-0.009,1.526
					c-0.008,0.504,0.052,1.023,0.304,1.464c0.234,0.45,0.712,0.749,1.219,0.779C33.071,400.005,33.571,399.833,34.011,399.584z
					 M34.011,399.584c-0.438,0.253-0.936,0.434-1.45,0.414c-0.513-0.023-1.005-0.322-1.25-0.779
					c-0.263-0.447-0.329-0.975-0.327-1.483l-0.009-1.526l-0.018-3.051c0-1.006-0.087-2.06,0.275-3.042
					c0.325-0.974,0.836-1.891,1.531-2.659c0.687-0.805,1.66-1.247,2.507-1.779l5.239-3.132l10.482-6.256l10.535-6.164
					c0.494-0.277,1.076-0.493,1.729-0.462c0.657,0.027,1.329,0.455,1.621,1.028c0.319,0.557,0.378,1.178,0.371,1.714l-0.009,1.526
					l-0.018,3.051l-0.016,1.541c-0.024,0.56-0.141,1.099-0.313,1.612c-0.346,1.027-0.922,1.955-1.665,2.737
					c-0.375,0.387-0.801,0.738-1.284,1.005l-1.333,0.743l-5.332,2.971l-10.659,5.95L34.011,399.584z"/>
			</g>
			<g>
				<path style="fill:#fbc26b;" d="M34.011,226.833l10.535-6.166l10.482-6.255l5.239-3.132l1.31-0.783
					c0.401-0.239,0.761-0.552,1.082-0.905c0.642-0.709,1.121-1.574,1.421-2.474c0.146-0.451,0.239-0.917,0.252-1.375l-0.003-1.511
					l-0.018-3.051l-0.009-1.526c0.003-0.475-0.064-0.902-0.26-1.233c-0.187-0.333-0.484-0.504-0.848-0.53
					c-0.369-0.013-0.786,0.124-1.17,0.348l-10.606,6.041l-10.659,5.95l-5.332,2.971c-0.883,0.516-1.829,0.91-2.502,1.657
					c-0.689,0.722-1.234,1.599-1.555,2.553c-0.365,0.951-0.292,1.979-0.304,2.996l-0.018,3.051l-0.009,1.526
					c-0.008,0.504,0.052,1.023,0.304,1.464c0.235,0.45,0.712,0.749,1.219,0.779C33.07,227.254,33.57,227.081,34.011,226.833z
					 M34.011,226.833c-0.438,0.253-0.936,0.433-1.45,0.414c-0.513-0.023-1.005-0.322-1.25-0.779
					c-0.263-0.447-0.329-0.975-0.327-1.482l-0.009-1.526l-0.018-3.051c0-1.006-0.087-2.06,0.275-3.042
					c0.325-0.974,0.836-1.89,1.531-2.659c0.687-0.805,1.66-1.247,2.507-1.779l5.239-3.132l10.482-6.256l10.535-6.164
					c0.494-0.277,1.076-0.493,1.729-0.462c0.656,0.027,1.329,0.455,1.621,1.028c0.319,0.557,0.378,1.178,0.371,1.714l-0.009,1.526
					l-0.018,3.051l-0.016,1.541c-0.023,0.56-0.141,1.099-0.313,1.612c-0.346,1.027-0.922,1.955-1.665,2.737
					c-0.375,0.387-0.801,0.738-1.283,1.005l-1.333,0.743l-5.332,2.971l-10.659,5.95L34.011,226.833z"/>
			</g>
			<g>
				<path style="fill:#fbc26b;" d="M70.809,408.516l-10.534,6.166l-10.482,6.256l-5.239,3.132l-1.31,0.783
					c-0.401,0.239-0.761,0.552-1.083,0.905c-0.642,0.709-1.121,1.574-1.42,2.474c-0.146,0.452-0.239,0.918-0.252,1.375l0.003,1.511
					l0.018,3.051l0.009,1.526c-0.003,0.476,0.064,0.902,0.26,1.233c0.187,0.334,0.484,0.504,0.848,0.53
					c0.369,0.013,0.786-0.124,1.17-0.348l10.606-6.041l10.659-5.95l5.332-2.971c0.883-0.517,1.829-0.91,2.502-1.657
					c0.689-0.722,1.234-1.599,1.555-2.552c0.364-0.951,0.292-1.979,0.304-2.996l0.018-3.051l0.009-1.526
					c0.008-0.504-0.052-1.023-0.304-1.464c-0.234-0.45-0.712-0.749-1.219-0.779C71.75,408.095,71.25,408.267,70.809,408.516z
					 M70.809,408.516c0.438-0.253,0.936-0.433,1.45-0.414c0.513,0.023,1.005,0.322,1.249,0.779c0.263,0.447,0.329,0.975,0.327,1.482
					l0.009,1.526l0.018,3.051c0,1.006,0.087,2.06-0.275,3.042c-0.325,0.974-0.836,1.891-1.531,2.659
					c-0.687,0.805-1.66,1.247-2.507,1.779l-5.239,3.132l-10.482,6.256l-10.535,6.164c-0.494,0.277-1.076,0.493-1.729,0.462
					c-0.656-0.027-1.329-0.455-1.621-1.028c-0.319-0.557-0.378-1.178-0.371-1.714l0.009-1.526l0.018-3.051l0.016-1.541
					c0.023-0.56,0.141-1.099,0.313-1.612c0.347-1.027,0.922-1.955,1.665-2.737c0.375-0.387,0.801-0.738,1.284-1.005l1.333-0.743
					l5.331-2.971l10.659-5.95L70.809,408.516z"/>
			</g>
			<g>
				<path style="fill:#fbc26b;" d="M43.189,346.216c1.146-0.698,1.975-1.824,2.497-3.04c0.249-0.615,0.426-1.268,0.446-1.929
					c0.01-0.662-0.014-1.333-0.02-1.999l-0.097-4.004c0-0.656-0.088-1.31-0.483-1.753c-0.377-0.449-1.015-0.521-1.579-0.31
					c-0.553,0.193-1.113,0.616-1.688,0.946l-1.709,1.044l-3.428,2.071c-2.29,1.372-4.596,2.717-6.914,4.039l0.245-0.425
					c-0.001,4.332-0.126,8.663-0.235,12.995l-0.384-0.222l6.703-3.657C38.77,348.739,40.981,347.481,43.189,346.216z
					 M43.189,346.216c-2.199,1.279-4.395,2.566-6.575,3.879l-6.519,3.976l-0.373,0.227l-0.011-0.449
					c-0.109-4.331-0.234-8.663-0.235-12.995v-0.282l0.246-0.143c2.305-1.347,4.622-2.671,6.956-3.968l3.507-1.933l1.758-0.958
					c0.597-0.299,1.129-0.686,1.85-0.909c0.679-0.233,1.608-0.095,2.081,0.544c0.483,0.606,0.516,1.383,0.488,2.039l-0.097,4.004
					c-0.014,0.668-0.01,1.332-0.039,2.004c-0.039,0.675-0.244,1.325-0.503,1.94C45.186,344.41,44.342,345.53,43.189,346.216z"/>
			</g>
			<g>
				<path style="fill:#fbc26b;" d="M29.967,272.376l10.143-6.221l2.479-1.501c0.847-0.452,1.488-1.074,2.023-1.85
					c0.526-0.761,0.915-1.635,1.065-2.528c0.082-0.436,0.06-0.886,0.059-1.398l-0.009-1.478l-0.018-2.956
					c-0.01-0.485,0.015-1.017-0.043-1.405c-0.055-0.415-0.227-0.773-0.477-0.982c-0.254-0.199-0.597-0.261-0.983-0.187
					c-0.392,0.075-0.748,0.285-1.196,0.542l-2.569,1.463c-3.427,1.947-6.841,3.917-10.301,5.807l0.173-0.3
					c-0.044,2.119-0.08,4.228-0.161,6.39L29.967,272.376z M29.967,272.376l-0.185-6.39c-0.081-2.17-0.117-4.392-0.161-6.604
					l-0.004-0.192l0.177-0.108c3.367-2.051,6.78-4.023,10.18-6.018l2.551-1.493c0.4-0.234,0.9-0.552,1.483-0.67
					c0.573-0.133,1.295-0.047,1.814,0.393c0.509,0.438,0.738,1.049,0.809,1.605c0.071,0.589,0.028,1.048,0.036,1.547l-0.018,2.956
					l-0.009,1.478c-0.005,0.472,0.014,1.014-0.09,1.55c-0.193,1.051-0.641,2.013-1.242,2.865c-0.583,0.848-1.445,1.582-2.36,2.026
					l-2.642,1.455L29.967,272.376z"/>
			</g>
			<g>
				<path style="fill:#fbc26b;" d="M61.775,289.086l-10.534,6.166l-10.483,6.256l-5.239,3.132l-1.31,0.783
					c-0.401,0.239-0.761,0.552-1.083,0.905c-0.642,0.709-1.121,1.574-1.421,2.474c-0.146,0.451-0.239,0.917-0.252,1.375l0.003,1.511
					l0.018,3.051l0.009,1.526c-0.003,0.476,0.064,0.902,0.261,1.233c0.187,0.333,0.484,0.504,0.847,0.53
					c0.369,0.013,0.786-0.124,1.169-0.348l10.606-6.041l10.659-5.95l5.332-2.971c0.883-0.517,1.829-0.91,2.502-1.657
					c0.69-0.722,1.234-1.599,1.555-2.552c0.364-0.951,0.292-1.979,0.304-2.996l0.018-3.052l0.009-1.526
					c0.008-0.504-0.051-1.023-0.304-1.464c-0.234-0.45-0.712-0.749-1.219-0.779C62.715,288.665,62.215,288.837,61.775,289.086z
					 M61.775,289.086c0.438-0.253,0.936-0.433,1.45-0.414c0.513,0.023,1.005,0.322,1.249,0.779c0.263,0.447,0.329,0.975,0.327,1.482
					l0.009,1.526l0.018,3.052c0,1.005,0.087,2.06-0.275,3.042c-0.325,0.974-0.836,1.891-1.531,2.659
					c-0.687,0.805-1.66,1.247-2.507,1.778l-5.239,3.132l-10.482,6.256l-10.535,6.165c-0.494,0.277-1.076,0.493-1.729,0.462
					c-0.656-0.027-1.329-0.455-1.62-1.028c-0.319-0.557-0.378-1.178-0.371-1.714l0.009-1.526l0.018-3.051l0.016-1.541
					c0.023-0.56,0.141-1.099,0.313-1.612c0.347-1.027,0.923-1.955,1.665-2.737c0.375-0.387,0.801-0.738,1.283-1.006l1.333-0.743
					l5.332-2.971l10.659-5.95L61.775,289.086z"/>
			</g>
		</g>
	</g>
</g>
<g id="Paint_Pot">
	<g id="Paint_Pot_00000004548189231937661670000011451369112788165037_">
		<g id="Paint_Pot_00000088822594317623876410000013066101646196407705_">
			<path id="XMLID_401_" style="fill:#37474F;" d="M131.799,415.496l-32.332-0.44l-0.281,26.404l0.003,0
				c-0.027,2.39,1.525,4.797,4.663,6.654c6.273,3.713,16.51,3.824,22.864,0.247c3.206-1.805,4.806-4.203,4.803-6.614
				L131.799,415.496z"/>
			<path id="XMLID_00000010280549916054345320000017636743536560990351_" style="fill:#455A64;" d="M104.279,408.513
				c-6.352,3.578-6.416,9.489-0.143,13.202c6.273,3.713,16.51,3.824,22.864,0.247c6.354-3.577,6.418-9.488,0.143-13.202
				C120.867,405.045,110.63,404.935,104.279,408.513z"/>
			<path id="XMLID_393_" style="fill:#263238;" d="M130.409,415.39c0,0.422-0.088,0.844-0.229,1.267
				c-0.492,1.513-1.812,2.92-3.87,4.081c-2.867,1.601-6.685,2.463-10.766,2.427c-4.063-0.053-7.863-0.985-10.695-2.656
				c-1.988-1.179-3.289-2.604-3.747-4.081c-0.158-0.44-0.229-0.897-0.229-1.355c0.035-1.97,1.478-3.87,4.099-5.33
				c2.85-1.618,6.685-2.48,10.748-2.427c4.081,0.035,7.881,0.985,10.713,2.656C129.02,411.503,130.427,413.42,130.409,415.39z"/>
			<path id="XMLID_392_" style="fill:#fbc26b;" d="M130.18,416.657c-0.492,1.513-1.812,2.92-3.87,4.081
				c-2.867,1.601-6.685,2.463-10.766,2.427c-4.063-0.053-7.863-0.985-10.695-2.656c-1.988-1.179-3.289-2.604-3.747-4.081
				c0.493-1.513,1.812-2.92,3.87-4.064c2.85-1.618,6.685-2.48,10.748-2.445c4.081,0.053,7.881,1.003,10.713,2.674
				C128.421,413.772,129.706,415.179,130.18,416.657z"/>
			<path id="XMLID_452_" style="opacity:0.6;fill:#FFFFFF;" d="M130.18,416.657c-0.492,1.513-1.812,2.92-3.87,4.081
				c-2.867,1.601-6.685,2.463-10.766,2.427c-4.063-0.053-7.863-0.985-10.695-2.656c-1.988-1.179-3.289-2.604-3.747-4.081
				c0.493-1.513,1.812-2.92,3.87-4.064c2.85-1.618,6.685-2.48,10.748-2.445c4.081,0.053,7.881,1.003,10.713,2.674
				C128.421,413.772,129.706,415.179,130.18,416.657z"/>
			<path style="opacity:0.35;fill:#fbc26b;" d="M126.31,420.738c0.544-0.306,1.032-0.631,1.471-0.97
				c-5.902,3.166-15.959,1.714-19.218-0.654c-4.011-2.914-3.588-6.736,1.555-8.637c-1.91,0.413-3.663,1.045-5.145,1.887
				c-2.058,1.143-3.378,2.551-3.87,4.064c0.457,1.477,1.759,2.902,3.747,4.081c2.832,1.671,6.632,2.603,10.695,2.656
				C119.626,423.201,123.443,422.339,126.31,420.738z"/>
			<path id="XMLID_00000181067380048944619280000004204055696483317417_" style="fill:#263238;" d="M122.525,425.388
				c0.709-0.399,1.276-0.064,1.267,0.75c-0.009,0.814-0.591,1.797-1.3,2.197c-0.709,0.4-1.276,0.064-1.267-0.75
				C121.234,426.771,121.817,425.788,122.525,425.388z"/>
			<g id="XMLID_00000122686277087366557860000002658209807516159392_">
				<path id="XMLID_389_" style="fill:#E0E0E0;" d="M99.414,419.7c-1.777,3.5-5.313,11.839-0.721,15.234
					c0.194,0.141,0.369,0.264,0.563,0.387l-0.018,1.689c-0.457-0.281-0.932-0.598-1.39-0.932c-6.861-5.084,0.88-18.136,1.214-18.682
					c0.088-0.158,0.229-0.246,0.387-0.299L99.414,419.7z"/>
				<path id="XMLID_00000182519920195552783190000012588658264034291367_" style="fill:#E0E0E0;" d="M123.127,427.194
					c-0.194,0.405-5.189,9.956-13.404,11.874c-0.95,0.229-1.882,0.334-2.832,0.334c-2.551,0-5.101-0.792-7.652-2.392l0.018-1.689
					c3.395,2.357,6.808,3.166,10.15,2.392c7.582-1.777,12.437-11.082,12.472-11.17c0.176-0.352,0.616-0.475,0.95-0.299
					C123.179,426.42,123.32,426.842,123.127,427.194z"/>
			</g>
		</g>
	</g>
	<g id="Paint_Pot_00000145055843984812768550000002937170201222330545_">
		<g id="Paint_Pot_00000008143544844441765920000004131796039392867510_">
			<path id="XMLID_00000060029395572715198830000001477314316614754465_" style="fill:#37474F;" d="M89.372,435.535l-32.332-0.44
				l-0.281,26.404l0.003,0c-0.027,2.39,1.525,4.797,4.663,6.654c6.273,3.713,16.51,3.824,22.864,0.247
				c3.206-1.805,4.805-4.203,4.803-6.614L89.372,435.535z"/>
			<path id="XMLID_00000183240985807390170020000009938048599318228635_" style="fill:#455A64;" d="M61.852,428.551
				c-6.352,3.578-6.416,9.489-0.142,13.202c6.273,3.713,16.51,3.824,22.864,0.247c6.354-3.577,6.418-9.488,0.143-13.202
				C78.441,425.084,68.204,424.974,61.852,428.551z"/>
			<path id="XMLID_00000176026181517492603620000002940213394623967126_" style="fill:#263238;" d="M87.983,435.429
				c0,0.422-0.088,0.844-0.229,1.267c-0.493,1.513-1.812,2.92-3.87,4.081c-2.867,1.601-6.685,2.463-10.766,2.427
				c-4.063-0.053-7.863-0.985-10.695-2.656c-1.988-1.179-3.29-2.604-3.747-4.081c-0.158-0.44-0.229-0.897-0.229-1.355
				c0.035-1.97,1.478-3.87,4.099-5.33c2.85-1.618,6.685-2.48,10.748-2.427c4.081,0.035,7.881,0.985,10.713,2.656
				C86.593,431.542,88,433.459,87.983,435.429z"/>
			<path id="XMLID_00000042712965218407880620000010397918759123777673_" style="fill:#fbc26b;" d="M87.754,436.696
				c-0.493,1.513-1.812,2.92-3.87,4.081c-2.867,1.601-6.685,2.463-10.766,2.427c-4.063-0.053-7.863-0.985-10.695-2.656
				c-1.988-1.179-3.29-2.604-3.747-4.081c0.493-1.513,1.812-2.92,3.87-4.064c2.85-1.618,6.685-2.48,10.748-2.445
				c4.081,0.053,7.881,1.003,10.713,2.674C85.995,433.811,87.279,435.218,87.754,436.696z"/>
			<path id="XMLID_00000046330201701166363560000002615248522719409808_" style="opacity:0.6;fill:#FFFFFF;" d="M87.754,436.696
				c-0.493,1.513-1.812,2.92-3.87,4.081c-2.867,1.601-6.685,2.463-10.766,2.427c-4.063-0.053-7.863-0.985-10.695-2.656
				c-1.988-1.179-3.29-2.604-3.747-4.081c0.493-1.513,1.812-2.92,3.87-4.064c2.85-1.618,6.685-2.48,10.748-2.445
				c4.081,0.053,7.881,1.003,10.713,2.674C85.995,433.811,87.279,435.218,87.754,436.696z"/>
			<path style="opacity:0.35;fill:#fbc26b;" d="M83.884,440.777c0.544-0.306,1.032-0.631,1.471-0.97
				c-5.902,3.166-15.958,1.714-19.218-0.654c-4.011-2.914-3.588-6.736,1.555-8.637c-1.91,0.413-3.663,1.045-5.145,1.887
				c-2.058,1.143-3.378,2.551-3.87,4.064c0.457,1.477,1.759,2.902,3.747,4.081c2.832,1.671,6.632,2.603,10.695,2.656
				C77.2,443.24,81.017,442.378,83.884,440.777z"/>
			<path id="XMLID_00000166664283103452154570000007996519282852221570_" style="fill:#263238;" d="M80.099,445.427
				c0.709-0.399,1.276-0.064,1.267,0.75c-0.009,0.814-0.591,1.797-1.3,2.197c-0.709,0.4-1.276,0.064-1.267-0.75
				C78.808,446.81,79.39,445.827,80.099,445.427z"/>
			<g id="XMLID_00000096742182490043496580000005107630746055738778_">
				<path id="XMLID_00000125564046118280100060000010152554118277815999_" style="fill:#E0E0E0;" d="M56.988,439.739
					c-1.777,3.5-5.313,11.839-0.721,15.234c0.194,0.141,0.37,0.264,0.563,0.387l-0.018,1.689c-0.457-0.281-0.932-0.598-1.39-0.932
					c-6.861-5.084,0.88-18.136,1.214-18.681c0.088-0.158,0.229-0.246,0.387-0.299L56.988,439.739z"/>
				<path id="XMLID_00000117644182228103018140000011652734484618843791_" style="fill:#E0E0E0;" d="M80.7,447.233
					c-0.193,0.405-5.189,9.956-13.404,11.874c-0.95,0.229-1.882,0.334-2.832,0.334c-2.551,0-5.101-0.792-7.652-2.392l0.018-1.689
					c3.395,2.357,6.808,3.166,10.15,2.392c7.582-1.777,12.437-11.082,12.472-11.17c0.176-0.352,0.616-0.475,0.95-0.299
					C80.753,446.459,80.894,446.881,80.7,447.233z"/>
			</g>
		</g>
	</g>
</g>
<g id="Brush">
	<g id="Brush_12_">
		<g id="Brush_7_">
			<g id="XMLID_384_">
				<path id="XMLID_386_" style="fill:#455A64;" d="M157.184,455.384l14.629-8.423c0.284-0.164,0.46-0.515,0.461-1.016
					c0.001-1.001-0.7-2.219-1.566-2.719c-0.433-0.251-0.826-0.275-1.109-0.112l-14.629,8.423L157.184,455.384z"/>
				<polygon id="XMLID_385_" style="fill:#37474F;" points="158.734,449.37 163.17,451.938 157.184,455.384 154.969,451.538 				"/>
			</g>
			<g id="XMLID_357_">
				<g id="XMLID_369_">
					<g id="XMLID_00000105410624398461264490000008835960125435450506_">
						<path id="XMLID_383_" style="fill:#37474F;" d="M142.125,456.361l2.973-1.72l-2.97-1.719l6.115-3.537
							c1.843-1.066,4.83-1.065,6.673,0.002l5.221,3.023c0.863,0.5,1.328,1.16,1.376,1.811c0.005,0.071,0.023,3.019-0.014,3.664
							c-0.037,0.662-0.492,1.317-1.369,1.823l-6.118,3.533L142.125,456.361z"/>
						<path id="XMLID_382_" style="fill:#455A64;" d="M160.136,452.411l-5.221-3.023c-1.842-1.067-4.829-1.068-6.672-0.002
							l-6.115,3.537l11.887,6.882l6.118-3.533C161.977,455.206,161.978,453.478,160.136,452.411z"/>
						<polygon id="XMLID_00000067221767474865564760000005931262073381524400_" style="fill:#F0F0F0;" points="154.016,459.804 
							142.129,452.922 133.197,458.065 145.089,464.949 						"/>
						<polygon id="XMLID_00000141441492847817390450000017983685492314290326_" style="fill:#EBEBEB;" points="154.016,459.804 
							145.089,464.949 145.084,468.383 154.012,463.243 						"/>
					</g>
					<polygon id="XMLID_377_" style="fill:#fbc26b;" points="156.67,458.271 144.781,451.388 145.997,450.685 157.949,457.532 					
						"/>
					<polygon id="XMLID_376_" style="fill:#fbc26b;" points="156.67,458.271 156.666,461.708 157.945,460.969 157.949,457.532 					
						"/>
					<polygon id="XMLID_370_" style="opacity:0.1;" points="156.67,458.271 156.666,461.708 157.945,460.969 157.949,457.532 					
						"/>
				</g>
				<g>
					<path id="XMLID_00000080917290065399041920000014144593624351471488_" style="fill:#fbc26b;" d="M147.81,466.814
						c0,0,1.63-2.096,0.758-3.87l-3.479,2.005l-0.005,3.434L147.81,466.814z"/>
					<path id="XMLID_00000136370775520023852890000014674477018614212511_" style="opacity:0.1;" d="M147.81,466.814
						c0,0,1.63-2.096,0.758-3.87l-3.479,2.005l-0.005,3.434L147.81,466.814z"/>
				</g>
				<path id="XMLID_366_" style="fill:#fbc26b;" d="M148.568,462.944c0,0-0.234-2.316-2.436-3.27
					c-1.622-0.703-5.065,0.725-6.49-1.601c-1.003-1.638,0.098-3.775,0.098-3.775l-6.543,3.767l11.892,6.885L148.568,462.944z"/>
				<g>
					<polygon id="XMLID_00000138565616116569637110000014908319618371054740_" style="fill:#fbc26b;" points="133.197,458.065 
						133.193,461.501 145.084,468.383 145.089,464.949 					"/>
					<polygon id="XMLID_358_" style="opacity:0.15;" points="133.197,458.065 133.193,461.501 145.084,468.383 145.089,464.949 
											"/>
				</g>
			</g>
		</g>
	</g>
</g>
<g id="Scaffold_00000018222369218073229490000014168850254246687400_">
	<g id="Scaffold">
		<g>
			<g>
				<g>
					<g>
						<path id="XMLID_00000087395269530071474120000006275182482848209025_" style="fill:#455A64;" d="M309.096,333.833
							c-0.125-2.219-1.836-4.83-3.82-5.831c-1.042-0.526-1.778-0.481-2.559-0.037l0,0l-2.443,1.36l5.47,8.199l2.414-1.465
							l-0.004-0.006C308.787,335.664,309.16,334.965,309.096,333.833z"/>
						<path id="XMLID_00000124145580969858014050000004387651178673525935_" style="fill:#37474F;" d="M302.748,329.431
							c1.985,1.001,3.695,3.612,3.82,5.831c0.125,2.219-1.382,3.207-3.366,2.205c-1.984-1.001-3.695-3.612-3.82-5.831
							C299.256,329.418,300.763,328.43,302.748,329.431z"/>
						<path id="XMLID_00000147180822134518223600000013446206467398361778_" style="fill:#263238;" d="M301.759,332.836
							c-0.049-0.867,0.456-1.296,1.128-0.957c0.672,0.339,1.256,1.317,1.305,2.184c0.049,0.867-0.456,1.296-1.128,0.957
							C302.392,334.681,301.807,333.703,301.759,332.836z"/>
						<path id="XMLID_00000080168540943950798350000006516638985191706785_" style="fill:#263238;" d="M302.953,333.064
							c0.19,0.096,0.354,0.346,0.367,0.56c0.012,0.213-0.133,0.308-0.323,0.212c-0.19-0.096-0.355-0.347-0.367-0.559
							C302.618,333.063,302.763,332.968,302.953,333.064z"/>
					</g>
					<g>
						<path style="fill:#E0E0E0;" d="M309.576,333.808c-0.133-2.429-1.943-5.195-4.118-6.288c-0.591-0.304-1.165-0.453-1.706-0.453
							c-0.489,0-0.933,0.127-1.308,0.368c-0.15,0.096-2.085,1.18-2.46,1.421c-0.15,0.096-0.289,0.211-0.415,0.344
							c-0.48,0.508-0.74,1.237-0.751,2.114c2.859,1.651,8.27,4.775,8.27,4.775l2.46-1.421
							C309.587,334.399,309.592,334.112,309.576,333.808z"/>
						<path style="fill:#F5F5F5;" d="M307.087,336.091l-8.27-4.775c0.011-0.878,0.271-1.607,0.751-2.114
							c0.442-0.464,1.038-0.712,1.722-0.712c0.541,0,1.115,0.149,1.706,0.453c2.175,1.093,3.986,3.859,4.118,6.288
							C307.132,335.534,307.126,335.821,307.087,336.091z"/>
					</g>
				</g>
				<g>
					<path style="fill:#37474F;" d="M305.781,167.988c0-0.25-0.165-0.501-0.496-0.692c-0.662-0.382-1.735-0.382-2.397,0
						c-0.331,0.191-0.496,0.441-0.496,0.692c0,0.17,0,159.804,0,159.974c0,0.25,0.165,0.501,0.496,0.692
						c0.662,0.382,1.735,0.382,2.397,0c0.331-0.191,0.496-0.441,0.496-0.692C305.781,327.792,305.781,168.158,305.781,167.988z"/>
					<path style="fill:#455A64;" d="M302.887,167.296c-0.331,0.191-0.496,0.441-0.496,0.692c0,0.251,0.165,0.501,0.496,0.692
						c0.662,0.382,1.735,0.382,2.397,0c0.331-0.191,0.496-0.441,0.496-0.692c0-0.25-0.165-0.501-0.496-0.692
						C304.622,166.914,303.549,166.914,302.887,167.296z"/>
				</g>
				<g>
					<path style="fill:#455A64;" d="M304.898,309.375c-0.217-0.125-0.517-0.107-0.847,0.084c-0.662,0.382-1.199,1.312-1.199,2.076
						c0,0.382,0.134,0.651,0.351,0.776c0.147,0.085,74.556,43.043,74.703,43.128c0.217,0.125,0.516,0.107,0.847-0.084
						c0.662-0.382,1.199-1.312,1.199-2.076c0-0.382-0.134-0.651-0.351-0.776C379.453,352.418,305.045,309.46,304.898,309.375z"/>
					<path style="fill:#455A64;" d="M378.753,355.355c-0.331,0.191-0.631,0.209-0.848,0.084c-0.217-0.125-0.351-0.394-0.351-0.776
						c0-0.764,0.537-1.694,1.198-2.076c0.331-0.191,0.631-0.209,0.847-0.084c0.217,0.125,0.351,0.394,0.351,0.776
						C379.952,354.043,379.415,354.973,378.753,355.355z"/>
				</g>
				<g>
					<g>
						<path style="fill:#455A64;" d="M304.898,250.975c-0.217-0.125-0.517-0.107-0.847,0.084c-0.662,0.382-1.199,1.312-1.199,2.076
							c0,0.382,0.134,0.651,0.351,0.776c0.147,0.085,36.181,20.869,36.328,20.953c0.217,0.125,0.517,0.107,0.847-0.084
							c0.662-0.382,1.198-1.311,1.198-2.076c0-0.382-0.134-0.651-0.351-0.776C341.079,271.843,305.045,251.06,304.898,250.975z"/>
						<path style="fill:#455A64;" d="M340.379,274.78c-0.331,0.191-0.63,0.209-0.847,0.084c-0.217-0.125-0.351-0.394-0.351-0.776
							c0-0.764,0.537-1.694,1.198-2.076c0.331-0.191,0.631-0.209,0.848-0.084c0.217,0.125,0.351,0.394,0.351,0.776
							C341.577,273.469,341.04,274.398,340.379,274.78z"/>
					</g>
					<g>
						<path style="fill:#455A64;" d="M304.898,279.963c-0.217-0.125-0.517-0.107-0.847,0.084c-0.662,0.382-1.199,1.312-1.199,2.076
							c0,0.382,0.134,0.651,0.351,0.776c0.147,0.085,36.181,20.869,36.328,20.953c0.217,0.125,0.517,0.107,0.847-0.084
							c0.662-0.382,1.198-1.311,1.198-2.076c0-0.382-0.134-0.651-0.351-0.776C341.079,300.832,305.045,280.048,304.898,279.963z"/>
						<path style="fill:#455A64;" d="M340.379,303.768c-0.331,0.191-0.63,0.209-0.847,0.084c-0.217-0.125-0.351-0.394-0.351-0.776
							c0-0.764,0.537-1.694,1.198-2.076c0.331-0.191,0.631-0.209,0.848-0.084c0.217,0.125,0.351,0.394,0.351,0.776
							C341.577,302.457,341.04,303.386,340.379,303.768z"/>
					</g>
				</g>
				<g>
					<path style="fill:#37474F;" d="M341.82,244.398c0-0.251-0.165-0.501-0.496-0.692c-0.662-0.382-1.735-0.382-2.397,0
						c-0.331,0.191-0.496,0.441-0.496,0.692c0,0.17,0,86.453,0,86.622c0,0.25,0.165,0.501,0.496,0.692
						c0.662,0.382,1.735,0.382,2.397,0c0.331-0.191,0.496-0.441,0.496-0.692C341.82,330.851,341.82,244.568,341.82,244.398z"/>
					<path style="fill:#455A64;" d="M338.926,243.706c-0.331,0.191-0.496,0.441-0.496,0.692c0,0.25,0.165,0.501,0.496,0.692
						c0.662,0.382,1.735,0.382,2.397,0c0.331-0.191,0.496-0.441,0.496-0.692c0-0.251-0.165-0.501-0.496-0.692
						C340.661,243.324,339.588,243.324,338.926,243.706z"/>
				</g>
				<g>
					<path style="fill:#455A64;" d="M304.898,221.986c-0.217-0.125-0.517-0.107-0.847,0.084c-0.662,0.382-1.199,1.312-1.199,2.076
						c0,0.382,0.134,0.651,0.351,0.776c0.147,0.085,74.556,43.043,74.703,43.128c0.217,0.125,0.516,0.107,0.847-0.084
						c0.662-0.382,1.199-1.312,1.199-2.076c0-0.382-0.134-0.651-0.351-0.776C379.453,265.029,305.045,222.071,304.898,221.986z"/>
					<path style="fill:#455A64;" d="M378.753,267.966c-0.331,0.191-0.631,0.209-0.848,0.084c-0.217-0.125-0.351-0.394-0.351-0.776
						c0-0.764,0.537-1.694,1.198-2.076c0.331-0.191,0.631-0.209,0.847-0.084c0.217,0.125,0.351,0.394,0.351,0.776
						C379.952,266.654,379.415,267.584,378.753,267.966z"/>
				</g>
				<g>
					<path style="fill:#455A64;" d="M304.898,184.052c-0.217-0.125-0.517-0.107-0.847,0.084c-0.662,0.382-1.199,1.312-1.199,2.076
						c0,0.382,0.134,0.651,0.351,0.776c0.147,0.085,74.556,43.043,74.703,43.127c0.217,0.125,0.516,0.107,0.847-0.084
						c0.662-0.382,1.199-1.311,1.199-2.076c0-0.382-0.134-0.651-0.351-0.776C379.453,227.095,305.045,184.137,304.898,184.052z"/>
					<path style="fill:#455A64;" d="M378.753,230.031c-0.331,0.191-0.631,0.209-0.848,0.084c-0.217-0.125-0.351-0.394-0.351-0.776
						c0-0.764,0.537-1.694,1.198-2.076c0.331-0.191,0.631-0.209,0.847-0.084c0.217,0.125,0.351,0.394,0.351,0.776
						C379.952,228.72,379.415,229.649,378.753,230.031z"/>
				</g>
				<g>
					<g>
						<path id="XMLID_00000178194017616642548540000016685696221112477580_" style="fill:#455A64;" d="M383.8,376.962
							c-0.125-2.219-1.836-4.83-3.82-5.831c-1.042-0.526-1.778-0.481-2.559-0.037l0,0l-2.443,1.36l5.47,8.199l2.414-1.465
							l-0.004-0.006C383.491,378.794,383.864,378.095,383.8,376.962z"/>
						<path id="XMLID_00000124123274255806747290000013956226006368893881_" style="fill:#37474F;" d="M377.452,372.561
							c1.984,1.001,3.695,3.612,3.82,5.831c0.125,2.219-1.382,3.207-3.367,2.205c-1.984-1.001-3.695-3.612-3.82-5.831
							C373.96,372.547,375.467,371.56,377.452,372.561z"/>
						<path id="XMLID_00000178916232102141746990000004989146632519884974_" style="fill:#263238;" d="M376.462,375.965
							c-0.049-0.867,0.456-1.296,1.128-0.957c0.672,0.339,1.256,1.317,1.305,2.185c0.049,0.867-0.456,1.296-1.128,0.957
							C377.095,377.811,376.511,376.833,376.462,375.965z"/>
						<path id="XMLID_00000030446574622709270890000010465989132812291472_" style="fill:#263238;" d="M377.657,376.194
							c0.19,0.096,0.354,0.347,0.366,0.559c0.012,0.213-0.133,0.308-0.323,0.212s-0.354-0.346-0.367-0.56
							C377.322,376.192,377.466,376.098,377.657,376.194z"/>
					</g>
					<g>
						<path style="fill:#E0E0E0;" d="M384.28,376.938c-0.133-2.429-1.943-5.195-4.118-6.288c-0.591-0.304-1.165-0.453-1.706-0.453
							c-0.489,0-0.933,0.127-1.308,0.368c-0.15,0.097-2.085,1.18-2.459,1.421c-0.15,0.096-0.289,0.211-0.415,0.344
							c-0.48,0.508-0.74,1.237-0.751,2.114c2.859,1.651,8.27,4.776,8.27,4.776l2.46-1.421
							C384.291,377.528,384.296,377.241,384.28,376.938z"/>
						<path style="fill:#F5F5F5;" d="M381.791,379.221l-8.27-4.775c0.011-0.878,0.271-1.607,0.751-2.114
							c0.442-0.464,1.038-0.712,1.722-0.712c0.541,0,1.115,0.149,1.706,0.453c2.175,1.093,3.986,3.859,4.118,6.288
							C381.835,378.663,381.83,378.95,381.791,379.221z"/>
					</g>
				</g>
				<g>
					<path style="fill:#37474F;" d="M380.484,211.117c0-0.25-0.165-0.501-0.496-0.692c-0.662-0.382-1.735-0.382-2.397,0
						c-0.331,0.191-0.496,0.441-0.496,0.692c0,0.17,0,159.805,0,159.974c0,0.251,0.165,0.501,0.496,0.692
						c0.662,0.382,1.735,0.382,2.397,0c0.331-0.191,0.496-0.441,0.496-0.692C380.484,370.922,380.484,211.287,380.484,211.117z"/>
					<path style="fill:#455A64;" d="M377.591,210.425c-0.331,0.191-0.496,0.441-0.496,0.692c0,0.251,0.165,0.501,0.496,0.692
						c0.662,0.382,1.735,0.382,2.397,0c0.331-0.191,0.496-0.442,0.496-0.692s-0.165-0.501-0.496-0.692
						C379.326,210.043,378.253,210.043,377.591,210.425z"/>
				</g>
			</g>
			<g>
				<path style="fill:#F0F0F0;" d="M163.1,390.164c-0.16,0.192-0.193,0.491-0.061,0.849c0.264,0.717,1.089,1.404,1.842,1.534
					c0.377,0.065,0.664-0.022,0.824-0.214c0.109-0.13,139.183-167.189,139.291-167.32c0.16-0.192,0.193-0.491,0.061-0.849
					c-0.264-0.717-1.089-1.404-1.842-1.534c-0.377-0.065-0.664,0.022-0.824,0.214C302.283,222.975,163.208,390.034,163.1,390.164z"
					/>
				<path style="fill:#F0F0F0;" d="M302.419,313.631c0.25,0.011,0.508-0.143,0.714-0.465c0.411-0.644,0.46-1.716,0.108-2.395
					c-0.176-0.339-0.419-0.516-0.669-0.527c-0.17-0.008-138.76-6.238-138.929-6.245c-0.25-0.011-0.508,0.143-0.714,0.465
					c-0.411,0.644-0.46,1.716-0.108,2.395c0.176,0.339,0.419,0.516,0.669,0.527C163.659,307.393,302.249,313.623,302.419,313.631z"
					/>
			</g>
			<g>
				<path style="fill:#fbc26b;" d="M377.094,258.914l-71.466-41.259l-139.91,81.03v4.753l71.314,41.094l140.062-80.865V258.914z"/>
				<polygon style="opacity:0.3;" points="165.718,298.685 165.718,303.438 237.032,344.532 237.032,339.779 				"/>
				<polygon style="opacity:0.3;fill:#FFFFFF;" points="237.032,339.779 377.095,258.914 305.628,217.655 165.718,298.685 				"/>
			</g>
			<g>
				<path style="fill:#F0F0F0;" d="M237.803,433.294c-0.16,0.192-0.193,0.491-0.061,0.849c0.264,0.717,1.089,1.404,1.842,1.534
					c0.377,0.065,0.664-0.022,0.824-0.214c0.109-0.13,139.183-167.189,139.291-167.32c0.16-0.193,0.193-0.491,0.061-0.849
					c-0.264-0.717-1.089-1.404-1.842-1.534c-0.377-0.065-0.664,0.022-0.824,0.214C376.986,266.104,237.912,433.164,237.803,433.294z
					"/>
				<path style="fill:#F0F0F0;" d="M377.122,356.761c0.25,0.011,0.508-0.143,0.714-0.465c0.411-0.644,0.46-1.716,0.108-2.395
					c-0.176-0.339-0.419-0.516-0.669-0.527c-0.17-0.008-138.76-6.238-138.929-6.245c-0.25-0.011-0.508,0.143-0.714,0.465
					c-0.411,0.644-0.46,1.716-0.108,2.395c0.176,0.339,0.419,0.516,0.669,0.527C238.362,350.523,376.952,356.753,377.122,356.761z"
					/>
			</g>
			<g>
				<path style="fill:#455A64;" d="M163.141,264.914c-0.217,0.125-0.351,0.394-0.351,0.776c0,0.764,0.537,1.694,1.199,2.076
					c0.331,0.191,0.631,0.209,0.847,0.084c0.147-0.085,139.104-80.27,139.252-80.355c0.217-0.125,0.351-0.394,0.351-0.776
					c0-0.764-0.536-1.694-1.199-2.076c-0.331-0.191-0.63-0.209-0.847-0.084C302.246,184.644,163.288,264.829,163.141,264.914z"/>
				<path style="fill:#455A64;" d="M163.988,267.766c0.331,0.191,0.631,0.209,0.847,0.084c0.217-0.125,0.351-0.394,0.351-0.776
					c0-0.764-0.537-1.694-1.199-2.076c-0.331-0.191-0.631-0.209-0.847-0.084c-0.217,0.125-0.351,0.394-0.351,0.776
					C162.79,266.454,163.327,267.384,163.988,267.766z"/>
			</g>
		</g>
		<g id="Character_1_">
			<g>
				<g>
					<path style="fill:#263238;" d="M315.417,204.656c0.53-0.724,0.666-1.976,0.305-2.796c-0.183-0.415-0.458-0.639-0.754-0.667
						L153.78,182.894l-0.428,3.951l161.181,18.299C314.829,205.182,315.148,205.024,315.417,204.656z"/>
					<path style="fill:#37474F;" d="M154.523,183.559c-0.362-0.821-1.085-0.9-1.615-0.176c-0.53,0.724-0.666,1.976-0.305,2.796
						c0.362,0.821,1.085,0.9,1.615,0.176C154.748,185.632,154.884,184.38,154.523,183.559z"/>
				</g>
				<g>
					<g>
						<path style="fill:#37474F;" d="M143.662,195.863c0.003-0.018,0.006-0.038,0.005-0.057c0.003-0.188-0.146-0.344-0.335-0.346
							l-9.66-0.159c-0.188-0.004-0.35,0.152-0.346,0.335c-0.003,0.188,0.146,0.344,0.335,0.346l9.66,0.159
							C143.49,196.145,143.632,196.025,143.662,195.863z"/>
					</g>
					<g>
						<path style="fill:#fbc26b;" d="M137.426,199.675c-3.533-0.058-7.789-2.61-9.506-5.699c-0.874-1.573-0.917-2.979-0.286-3.976
							l0,0l13.16-21.952l13.476,8.007l-13.165,21.949l-0.01-0.006C140.528,199.057,139.257,199.705,137.426,199.675z"/>
						<path style="opacity:0.1;" d="M137.426,199.675c-3.533-0.058-7.789-2.61-9.506-5.699c-0.874-1.573-0.917-2.979-0.286-3.976
							l0,0l13.16-21.952l13.476,8.007l-13.165,21.949l-0.01-0.006C140.528,199.057,139.257,199.705,137.426,199.675z"/>
						<path style="fill:#fbc26b;" d="M141.086,172.027c1.716,3.089,5.972,5.64,9.506,5.699c3.533,0.058,5.007-2.399,3.29-5.488
							c-1.716-3.089-5.972-5.641-9.506-5.699S139.37,168.938,141.086,172.027z"/>
						<path style="opacity:0.2;fill:#FFFFFF;" d="M141.086,172.027c1.716,3.089,5.972,5.64,9.506,5.699
							c3.533,0.058,5.007-2.399,3.29-5.488c-1.716-3.089-5.972-5.641-9.506-5.699S139.37,168.938,141.086,172.027z"/>
						<path style="fill:#455A64;" d="M145.819,172.105c0.447,0.804,1.554,1.467,2.473,1.483c0.919,0.015,1.303-0.624,0.856-1.428
							c-0.447-0.804-1.554-1.467-2.473-1.482C145.756,170.662,145.373,171.301,145.819,172.105z"/>
					</g>
					<g>
						<path style="fill:#37474F;" d="M159.867,174.25c0.091-0.487,0.029-0.94-0.188-1.331c-0.374-0.674-1.152-1.055-2.189-1.072
							l-9.997-0.164c-0.188-0.004-0.35,0.151-0.346,0.335c-0.003,0.188,0.146,0.344,0.335,0.346l9.997,0.164
							c0.784,0.014,1.354,0.27,1.605,0.722c0.251,0.451,0.166,1.071-0.235,1.743l-10.649,17.762
							c-0.911,1.52-3.094,2.733-4.866,2.704c-0.188-0.002-0.352,0.149-0.346,0.335c-0.003,0.188,0.147,0.344,0.335,0.346
							c1.99,0.033,4.44-1.328,5.462-3.034l10.649-17.763C159.656,174.971,159.801,174.601,159.867,174.25z"/>
					</g>
				</g>
			</g>
			<g id="Bottom_30_">
				<g id="XMLID_00000124158052673628048840000001374848938134632874_">
					<g>
						<path style="fill:#263238;" d="M204.085,308.383c-0.515-0.061-0.552,1.168-0.245,1.764c0.882,1.714,3.396,3.59,7.119,4.476
							c3.723,0.886,11.066,0.08,13.287,0.044c2.221-0.035,6.024,1.145,8.226,1.54c4.011,0.719,6.793-0.31,8.139-1.545
							c0.528-0.484,0.594-1.213,0.592-1.843c-0.005-1.494-0.132-1.799-0.303-1.79L204.085,308.383z"/>
						<g id="XMLID_00000165192921867499248580000000492218681991119035_">
							<g id="XMLID_00000008130320219700342450000017829111403652383138_">
								<path id="XMLID_00000106838089225649954140000003414287436528744848_" style="fill:#37474F;" d="M240.561,306.666
									c0.292,1.467,0.482,3.908,0.234,5.393c-0.49,1.102-1.751,1.708-2.756,1.991c-2.651,0.749-5.228,0.538-8.112-0.126
									c-1.729-0.398-3.612-0.826-5.699-0.759c-2.293,0.074-7.356,0.467-9.656,0.448c-1.952-0.017-4.446-0.457-6.225-1.309
									c-1.503-0.72-3.769-2.293-4.255-3.451c-0.438-2.695-0.121-4.287,1.485-5.163c1.696-0.925,4.094-1.064,7.408-1.237
									c0.992-0.052,2.243-0.081,2.773-0.126c2.008-0.173,3.882-0.279,5.403-0.34c1.303-0.053,2.579-0.119,3.76-0.718
									c0.564-0.286,0.987-0.581,1.259-1.14c0.332-0.681,0.346-1.682,0.963-1.726c0,0,11.285,2.12,12.2,2.23
									C240.4,300.76,239.676,302.221,240.561,306.666z"/>
							</g>
						</g>
						<path style="fill:#FAFAFA;" d="M214.885,302.206c-0.335,0.206-0.68,0.648-0.857,0.949c-0.242,0.414-0.415,0.812-0.549,1.272
							c-0.163,0.561,0.547,0.688,0.84,0.047c0.2-0.439,0.406-0.937,0.846-1.517c0.21-0.277,0.67-0.636,0.999-0.664
							c0.249-0.02,0.574-0.046,0.574-0.046C216.594,301.824,215.329,301.931,214.885,302.206z"/>
						<path style="fill:#FAFAFA;" d="M220.009,301.733c-0.404-0.052-0.737,0.046-1.073,0.294c-0.396,0.292-0.647,0.71-0.828,1.15
							c-0.147,0.357-0.441,1.275-0.493,1.658c-0.049,0.362,0.825,0.368,0.929-0.025c0.103-0.388,0.31-1.106,0.48-1.51
							c0.105-0.249,0.579-1.191,1.184-1.273l0.273-0.01c0.005-0.126-0.165-0.216-0.286-0.247
							C220.134,301.753,220.072,301.741,220.009,301.733z"/>
						<path style="fill:#FAFAFA;" d="M223.009,301.711c-0.294,0.094-0.477,0.122-0.673,0.361c-0.184,0.224-0.4,0.587-0.487,0.865
							c-0.243,0.768-0.272,1.122-0.305,1.781c-0.023,0.466,0.851,0.362,0.887,0.051c0.115-0.982,0.13-1.626,0.625-2.334
							c0.408-0.584,0.769-0.754,0.769-0.754c-0.022-0.084-0.15-0.097-0.235-0.085C223.459,301.613,223.137,301.67,223.009,301.711z"
							/>
					</g>
					<path id="XMLID_00000101805167687713333260000002504700694942267316_" style="fill:#C8856A;" d="M240.755,288.75
						c0,0-1.205,10.148-1.505,12.491c-0.096,0.748-1.557,1.018-2.313,1.32c-0.756,0.302-1.95,0.78-2.607,1.39
						c-1.946,1.806-3.389,2.207-4.464-1.05c-0.22-0.667-0.65-0.962-1.523-0.825c-0.653,0.103-1.321,0.371-1.972,0.228
						c-0.099-0.066-0.035-0.217,0.035-0.312c0.544-0.728,0.823-1.191,0.747-2.538c-0.235-4.165-0.321-8.341-0.469-12.512
						L240.755,288.75z"/>
				</g>
				<g>
					<path style="fill:#C8856A;" d="M283.807,281.495c-1.301-2.13-3.276-7.83-4.868-13.857l-12.906,5.512
						c0,0,7.512,14.015,8.376,15.286C275.831,290.527,283.807,281.495,283.807,281.495z"/>
					<g>
						<path style="fill:#37474F;" d="M287.914,286.068c-0.014-0.122,0.074-1.111,0.045-1.231c-0.262-1.073-0.931-1.383-1.786-1.997
							c-1.059-0.762-2.082-1.669-2.35-2.049c-0.282-0.399-0.334-0.604-0.78-0.792c-0.762-0.321-1.996-0.372-3.536,0.376
							c-2.522,1.225-3.318,2.748-3.211,4.419c0.081,1.274,0.152,2.968-1.014,3.699c-0.485,0.305-1.595-1.281-1.595-1.281
							c-0.734,1.144,0.625,2.306,1.092,4.665c0.32,1.618,0.218,2.317-0.019,3.949c-0.298,2.055-0.59,2.041-1.714,2.161
							c-0.969,0.103-3.704-0.134-5.396,0.966c-2.332,1.516-1.764,3.612-1.764,3.612c0.28,0.798,2.692,4.694,11.85,3.453
							c2.656-0.36,8.308-4.303,8.231-4.684c-0.071-0.354,0.027-0.81,0.047-1.166c0.052-0.91,0.113-1.819,0.174-2.728
							c0.055-0.829-0.009-1.796,0.213-2.598c0.198-0.714,0.3-1.399,0.388-2.144c0.215-1.824,0.431-3.649,0.646-5.473
							C287.496,286.7,287.975,286.589,287.914,286.068z"/>
						<path id="XMLID_3660_" d="M289.071,285.732c0.881,0.869,0.279,3.323-0.994,6.257c-0.565,1.301-1.612,3.54-1.373,5.948
							c0.239,2.408,0.266,3.544-0.394,4.656c-1.032,1.74-6.388,3.881-9.53,4.521c0,0,2.943-3.448,3.376-8.744
							c0.433-5.296,0.924-8.705,3.461-11.003C286.824,284.46,289.071,285.732,289.071,285.732z"/>
						<path id="XMLID_00000011013216042572132840000003250720112232244659_" style="fill:#263238;" d="M265.885,302.565
							c0,0,1.756,3.384,8.818,3.425c2.78,0.016,4.297-1.273,4.458-5.394c0.193-4.966,0.715-9.975,2.416-12.406
							c1.702-2.431,4.351-3.572,6.382-3.352c0.352,0.063,0.792,0.401,1.112,0.894c0,0-2.022-0.696-5.247,1.802
							c-2.381,1.844-3.101,5.786-3.176,10.7c-0.032,2.114,0.047,4.514-0.624,6.105c-0.618,1.466-1.937,2.452-3.436,2.828
							c-3.863,0.97-9.076-0.875-10.37-2.486C265.481,303.608,265.885,302.565,265.885,302.565z"/>
						<g>
							<path id="XMLID_00000013911686787153853540000006192189565642089396_" style="fill:#FAFAFA;" d="M274.492,297.114
								c0,0-0.523,0.344-0.59,0.81c-0.066,0.466,0.075,1.549,1.064,2.181c0.419,0.268,0.792,0.185,0.136-0.7
								C274.448,298.521,274.492,297.114,274.492,297.114z"/>
							<path id="XMLID_3657_" style="fill:#FAFAFA;" d="M274.93,294.551c0,0-0.227,0.136-0.299,0.825
								c-0.039,0.37,0.519,1.873,1.254,2.245c0.735,0.371,0.352-0.473,0.039-0.891C275.579,296.273,274.979,295.237,274.93,294.551z
								"/>
							<path id="XMLID_3656_" style="fill:#FAFAFA;" d="M274.743,291.705c0,0-0.243,0.06-0.007,1.016
								c0.08,0.322,1.032,1.284,1.51,1.35c0.478,0.066,0.715-0.163,0.137-0.59C275.927,293.144,274.822,292.168,274.743,291.705z"/>
						</g>
					</g>
				</g>
				<g>
					<path id="XMLID_00000026157413233965230180000006921025154967956114_" style="fill:#455A64;" d="M269.38,279.811
						c0,0-6.045-10.799-15.111-27.184c-1.97-3.561-2.247-4.872-2.799-7.477c-0.575-2.713-3.557-16.37-3.557-16.37l-3.978,22.017
						c0.449,2.376,1.093,5.999,1.044,8.746c-0.069,3.65-0.675,9.178-1.899,16.667c-1.872,11.453-2.762,17.556-2.762,17.556
						c-0.844,0.562-1.888,1.36-7.688,1.16c-2.887-0.1-5.884-1.731-5.884-1.731s-0.755-11.97-0.994-20.313
						c-0.22-7.699-0.673-16.404-0.905-21.049c-0.435-8.729-0.555-12.488-0.338-26.219c0.225-14.242,1.803-35.163,1.803-35.163
						l43.422-2.599c0,0,0.56,5.575,0.633,19.653c0.055,11.986,0,33.593,0,33.593c3.452,4.871,4.099,8.538,5.864,15.406
						c1.962,7.633,3.159,12.065,4.73,17.642C277.625,273.997,270.654,277.561,269.38,279.811z"/>
					<path style="fill:#37474F;" d="M272.765,276.968c-0.211,0.122-0.408,0.251-0.605,0.373
						c-3.322-5.854-11.695-20.679-14.372-26.119c-2.753-5.582-4.622-14.009-7.081-26.301c-0.33-1.642-0.666-3.348-1.022-5.131
						l-0.155-0.775l0.332-1.993l0.524,2.636c0.219,1.121,0.44,2.206,0.654,3.27c2.639,13.258,4.547,22.212,7.396,27.992
						C261.098,256.332,269.429,271.086,272.765,276.968z"/>
					<path style="fill:#37474F;" d="M231.103,190.551l-0.721-0.015c-0.577,6.055-0.981,13.613-1.236,22.103
						c-1.45-0.715-2.974-2.201-3.925-5.17c-0.031,0.571-0.062,1.146-0.093,1.727c1.092,2.37,2.594,3.596,3.995,4.203
						c-0.694,24.113-0.205,55.48,0.921,81.097c0.237,0.066,0.48,0.125,0.728,0.18C229.228,259.682,228.872,213.866,231.103,190.551z
						"/>
					<path id="XMLID_3655_" style="fill:#37474F;" d="M247.879,228.895l2.64-15.782c0,0,5.378-0.287,11.95-5.392
						c0,0-0.954,4.674-10.182,7.685l-2.535,15.264l1.397,13.002C251.149,243.671,247.913,229.196,247.879,228.895z"/>
				</g>
			</g>
			<g id="Top_2_">
				<g>
					<path style="fill:#C8856A;" d="M277.277,154.33c-3.5-4.802-7.073-10.313-10.121-14.101c-4.111-5.107-14.297-2.313-14.312-2.309
						l6.464,13.814l11.256,14.471l-7.492,12.82l5.627,7.209c0,0,10.006-12.068,12.79-15.585c2.914-3.681,2.919-5.019,1.35-8.215
						C281.649,160.012,280.773,159.125,277.277,154.33z"/>
					<path style="fill:#263238;" d="M272.768,163.115c1.182-0.738,5.301-5.203,6.037-6.942c-4.017-6.344-8.669-13.726-10.881-16.473
						c-1.764-2.19-3.572-4.529-9.523-4.648l-0.747,16.171l7.122,14.559C267.184,165.771,270.386,164.602,272.768,163.115z"/>
				</g>
				<g>
					<path style="fill:#fbc26b;" d="M258.827,135.076c6.04,0.381,6.983,3.034,9.241,14.001c1.901,9.233,2.301,45.671,2.301,45.671
						s-5.882,6.293-21.193,7.167c-15.841,0.903-23.613-4.904-23.613-4.904s0.149-1.497,0.271-8.682
						c0.06-3.559,0.109-6.415,0.14-8.936c0.039-3.193-0.182-4.896-0.485-10.57c-0.303-5.674-1.553-14.895-0.101-20.831
						c1.051-2.292,2.926-5.592,5.589-6.512c0.965-0.334,7.441-2.661,10.276-3.374c4.059-1.02,5.285-1.511,8.152-2.098
						C253.18,135.236,255.261,134.852,258.827,135.076z"/>
					<path style="opacity:0.3;fill:#FFFFFF;" d="M258.827,135.076c6.04,0.381,6.983,3.034,9.241,14.001
						c1.901,9.233,2.301,45.671,2.301,45.671s-5.882,6.293-21.193,7.167c-15.841,0.903-23.613-4.904-23.613-4.904
						s0.149-1.497,0.271-8.682c0.06-3.559,0.109-6.415,0.14-8.936c0.039-3.193-0.182-4.896-0.485-10.57
						c-0.303-5.674-1.553-14.895-0.101-20.831c1.051-2.292,2.926-5.592,5.589-6.512c0.965-0.334,7.441-2.661,10.276-3.374
						c4.059-1.02,5.285-1.511,8.152-2.098C253.18,135.236,255.261,134.852,258.827,135.076z"/>
					<path style="fill:#fbc26b;" d="M256.183,170.014c-0.117-3.061-0.292-6.142-0.672-9.182c-0.369-2.947-0.843-5.88-1.414-8.796
						c-0.609-3.112-1.523-6.162-2.412-9.205c-0.146-0.499-0.555-0.141-0.463,0.252c1.339,5.745,2.269,11.698,2.909,17.563
						c0.314,2.874,0.623,5.74,0.784,8.627c0.17,3.046,0.141,6.081,0.443,9.116c0.036,0.358,0.538,0.609,0.611,0.133
						C256.402,175.691,256.292,172.87,256.183,170.014z"/>
					<g>
						<path style="fill:#FAFAFA;" d="M252.654,195.922c6.814-0.794,14.078-3.572,17.642-5.93c-0.019-1.056-0.042-2.259-0.07-3.57
							c-3.608,2.374-10.848,5.155-17.684,5.952c-8.964,1.045-19,0.496-26.736-2.584c-0.027,1.4-0.055,2.537-0.082,3.464
							C233.486,196.404,243.613,196.976,252.654,195.922z"/>
						<path style="fill:#FAFAFA;" d="M252.309,184.926c-8.827,1.029-18.694,0.514-26.379-2.443c0,0.011,0,0.023-0.001,0.034
							c-0.008,0.51-0.016,1.04-0.025,1.583c-0.001,0.041-0.001,0.082-0.002,0.123c-0.009,0.565-0.019,1.146-0.029,1.751
							c7.708,3.013,17.658,3.538,26.547,2.501c6.87-0.801,14.073-3.592,17.715-5.985c-0.029-1.146-0.061-2.338-0.096-3.564
							C266.368,181.329,259.197,184.123,252.309,184.926z"/>
					</g>
				</g>
				<g>
					<path style="fill:#C8856A;" d="M255.305,135.067c-0.95-0.095-1.778-0.144-1.996-1.863c-0.253-1.997-0.215-3.489-0.136-4.389
						c0.197-2.242,3.4-7.233,3.471-13.339c0.07-6.105-8.739-14.986-15.842-13.857c-7.104,1.129-10.694,5.239-12.329,10.619
						c-0.996,3.278,0.242,3.84-0.108,5.713c-0.69,3.688-1.037,8.665,0.647,13.26c0.902,2.461,2.584,3.374,4.663,3.756
						c2.079,0.382,4.642,0.066,4.642,0.066s0.089,0.724,0.163,1.412c0.234,2.165-0.254,2.528-1.053,2.814
						C240.309,141.083,254.558,139.453,255.305,135.067z"/>
					<path style="fill:#263238;" d="M228.366,112.637c0.363-1.484,0.901-2.454,1.964-2.989c0.608-0.344,1.31,0.319,1.772,0.58
						c0.639,0.361,1.343,0.605,2.068,0.715c1.96,0.296,3.916-0.38,5.865-0.738c0.951-0.174,1.917-0.273,2.884-0.296
						c0.308-0.007,0.652,0.008,0.866,0.229c0.384,0.396,0.052,1.034-0.182,1.534c-0.368,0.787-0.584,2.004-0.232,2.822
						c0.192,0.446,0.488,0.876,0.824,1.225c0.091,0.095,1.117,0.797,1.118,0.773c-0.066,1.027-0.004,2.063,0.183,3.075
						c0.101,0.546,0.356,1.195,0.908,1.253c0.849,0.089,1.127-0.901,1.489-1.441c0.425-0.632,1.019-1.176,1.741-1.444
						c1.469-0.544,3.31,0.289,3.837,1.747c0.341,0.961,0.164,2.017-0.092,3.003c-0.294,1.123-0.715,2.275-1.604,3.041
						c-0.89,0.759-2.354,0.975-3.208,0.177c-0.034,1.038,0.465,2.012,1.148,2.78c1.367,1.536,3.061,1.545,3.434,1.536
						c0.374-1.834,1.182-3.963,1.846-5.68c0.687-1.776,1.485-3.516,1.97-5.363c0.662-2.524,0.676-5.381-0.159-8.087
						c-0.428-1.386-1.071-2.765-1.964-3.935c-0.899-1.178-2.047-2.392-3.257-3.248c-3.575-2.528-7.046-3.213-12.474-2.679
						c-1.85,0.182-5.049,1.563-6.418,2.82C229.028,107.195,228.274,110.53,228.366,112.637z"/>
					<path style="fill:#AF6152;" d="M233.726,127.321c0.4,1.133,1.655,1.731,2.803,1.335c1.148-0.396,1.755-1.636,1.356-2.769
						L233.726,127.321z"/>
					<path style="fill:#F28F8F;" d="M235.46,128.741c0.352-1.11,1.325-1.959,2.539-2.125c-0.007,0.893-0.566,1.728-1.47,2.039
						C236.173,128.778,235.808,128.796,235.46,128.741z"/>
					<g>
						<g id="XMLID_1335_">
							<path id="XMLID_1339_" style="fill:#263238;" d="M237.834,118.773c-0.163,0.628,0.2,1.26,0.812,1.413
								c0.612,0.153,1.241-0.232,1.404-0.86c0.163-0.628-0.2-1.26-0.812-1.413C238.627,117.76,237.998,118.145,237.834,118.773z"/>
							<path id="XMLID_1338_" style="fill:#263238;" d="M238.744,114.972l2.496,1.236c0.334-0.707,0.045-1.558-0.644-1.899
								C239.906,113.967,239.077,114.264,238.744,114.972z"/>
							<path id="XMLID_1337_" style="fill:#263238;" d="M228.903,116.034l2.563-1.155c-0.298-0.716-1.113-1.038-1.821-0.719
								C228.937,114.48,228.605,115.318,228.903,116.034z"/>
							<path id="XMLID_1336_" style="fill:#263238;" d="M229.923,118.672c0.036,0.594,0.534,1.046,1.113,1.009
								c0.579-0.036,1.019-0.547,0.984-1.141c-0.036-0.594-0.534-1.046-1.113-1.01C230.327,117.567,229.887,118.078,229.923,118.672
								z"/>
							<path style="fill:#AF6152;" d="M229.319,123.363l3.965,1.624l1.549-7.618C233.289,116.912,231.036,120.249,229.319,123.363z"
								/>
						</g>
					</g>
					<path style="fill:#AF6152;" d="M238.318,135.033c1.383-0.067,3.846-0.91,4.891-1.46c2.337-1.231,3.889-3.192,4.451-5.061
						c-0.326,2.121-1.223,4.404-4.05,6.08c-2.667,1.58-5.129,1.854-5.129,1.854L238.318,135.033z"/>
				</g>
				<g>
					<path style="fill:#fbc26b;" d="M257.429,116.236c-0.076,1.511-0.366,2.959-0.845,4.322c-0.34-0.389-0.719-0.768-1.111-1.134
						c-2.109-1.967-4.762-3.576-7.679-4.787l-0.013-0.001c-6.538-2.702-13.339-3.432-19.537-1.407
						c-0.569-0.962-0.562-2.425-0.082-3.569c2.383-5.797,8.214-9.728,14.82-9.397C251.393,100.686,257.85,107.838,257.429,116.236z"
						/>
					<path style="fill:#fbc26b;" d="M250.176,101.408c-0.779-0.334-4.662-1.306-4.973-1.386c-2.013-0.513-5.199-0.329-8.355,2.514
						c-4.086,3.684-4.752,8.515-4.752,8.515l4.129,1.093l1.306,0.065c0.343-3.012,4-9.644,9.531-10.137
						c0.258-0.025,0.515-0.038,0.784-0.025c0.693-0.004,1.419,0.11,2.165,0.34c0,0,1.53,0.975,2.229,1.626
						C252.24,104.014,252.049,102.195,250.176,101.408z"/>
					<path style="opacity:0.45;fill:#FFFFFF;" d="M250.176,101.408c-0.779-0.334-4.662-1.306-4.973-1.386
						c-2.013-0.513-5.199-0.329-8.355,2.514c-4.086,3.684-4.752,8.515-4.752,8.515l4.129,1.093l1.306,0.065
						c0.343-3.012,4-9.644,9.531-10.137c0.258-0.025,0.515-0.038,0.784-0.025c0.693-0.004,1.419,0.11,2.165,0.34
						c0,0,1.53,0.975,2.229,1.626C252.24,104.014,252.049,102.195,250.176,101.408z"/>
					<path style="fill:#fbc26b;" d="M237.529,112.213c0.409-3.506,5.344-11.995,12.478-9.83c0,0,1.54,0.978,2.237,1.626
						c0,0-0.2-1.811-2.069-2.603c-1.869-0.792-5.551-1.059-9.201,2.23c-4.085,3.681-4.745,8.512-4.745,8.512L237.529,112.213z"/>
					<path style="opacity:0.3;" d="M237.529,112.213c0.409-3.506,5.344-11.995,12.478-9.83c0,0,1.54,0.978,2.237,1.626
						c0,0-0.2-1.811-2.069-2.603c-1.869-0.792-5.551-1.059-9.201,2.23c-4.085,3.681-4.745,8.512-4.745,8.512L237.529,112.213z"/>
					<path style="fill:#fbc26b;" d="M247.813,113.493c-0.293-0.234-1.767-3.069-6.678-5.411c-3.031-1.445-9.099-1.248-11.817-1.08
						c-4.759,0.294-5.85,1.359-5.878,2.063c-0.007,0.167-0.038,0.941-0.052,1.117c-0.014,0.176,0.038,0.331,0.12,0.446
						c0.763,1.048,4.695,2.743,4.695,2.743c5.876-1.92,13.353-1.302,19.552,1.26L247.813,113.493z"/>
					<path style="opacity:0.15;" d="M247.813,113.493c-0.293-0.234-1.767-3.069-6.678-5.411c-3.031-1.445-9.099-1.248-11.817-1.08
						c-4.759,0.294-5.85,1.359-5.878,2.063c-0.007,0.167-0.038,0.941-0.052,1.117c-0.014,0.176,0.038,0.331,0.12,0.446
						c0.763,1.048,4.695,2.743,4.695,2.743c5.876-1.92,13.353-1.302,19.552,1.26L247.813,113.493z"/>
					<path style="fill:#fbc26b;" d="M247.756,114.631c-6.199-2.562-13.676-3.18-19.552-1.26c0,0-3.932-1.695-4.695-2.743
						c-0.409-0.58-0.134-2.124,5.753-2.488c2.718-0.168,8.786-0.365,11.817,1.08C245.989,111.562,247.463,114.398,247.756,114.631z"
						/>
					<path style="opacity:0.3;" d="M247.756,114.631c-6.199-2.562-13.676-3.18-19.552-1.26c0,0-3.932-1.695-4.695-2.743
						c-0.409-0.58-0.134-2.124,5.753-2.488c2.718-0.168,8.786-0.365,11.817,1.08C245.989,111.562,247.463,114.398,247.756,114.631z"
						/>
				</g>
				<g>
					<path style="fill:#C8856A;" d="M230.13,142.231c-4.404,1.121-6.383,2.42-9.763,8.33c-4.72,8.253-8.502,14.701-9.262,15.821
						c0,0-11.61,7.07-14.1,8.17c-3.54,1.55-4.26,1.94-8.08,2c-1.32,0.02-2.65,0.04-3.96,0.11c-0.97,0.06-1.88,0.21-2.8,0.49
						c-2.68,0.82-5.35,1.63-8.03,2.44c-1.24,0.38-2.49,0.76-3.71,1.23c-0.69,0.27-0.43,0.91,0.07,1.22c0.62,0.39,1.4,0.45,2.12,0.43
						c1.3-0.02,2.52-0.31,3.8-0.56c1.35-0.26,2.7-0.52,4.05-0.78c0.12-0.03,0.24-0.05,0.36-0.02c0.71,0.18-0.41,0.94-0.61,1.11
						c-0.34,0.29-0.7,0.55-1.02,0.86c-0.63,0.63-1.17,1.29-1.72,1.99c-0.49,0.62-0.58,1.09-0.41,1.86c0.25,1.08,0.86,2.06,1.2,2.61
						c0.33,0.54,0.9,0.72,1.98,1.16c1.13,0.46,1.4,0.6,1.62,0.28c0.1-0.14,0.14-0.49,0.05-0.88c0.47,0.54,1.13,1.14,1.59,1.46
						c0.77,0.52,1.08,0.79,2.1,0.62c1.01-0.16,1.27-0.22,1.27-0.22s0.44,0.45,0.93,0.73c0.48,0.28,1.04,0.19,1.7,0.09
						c0.67-0.1,1.21-0.16,1.26-0.41c0.05-0.26-0.01-1.01-1.33-1.16c0,0-0.9-0.51-1.22-2.64c-0.06-0.4,0.11-1.1,0.65-1.18
						c1.11-0.16,3.78,0.36,6.1-0.75c2.31-1.11,2.42-2.06,4.44-2.94c1-0.43,6.463-2.383,11.326-4.02
						c5.955-2.005,8.813-2.95,10.836-4.977c2.023-2.027,5.072-7.762,7.11-10.533c3.877-5.27,3.708-10.289,3.877-12.035
						C233.382,143.579,230.13,142.231,230.13,142.231z M182.034,185.892c-0.11,0.56-0.77,2.54-0.73,3.21
						c-0.16-0.16-0.39-0.3-0.66-0.41l-0.67-1.61c0,0,1.14-1.24,1.56-1.55C181.964,185.212,182.144,185.302,182.034,185.892z"/>
					<path style="fill:#AF6152;" d="M185.128,187.685c0.339,1.453,1.143,3.569,1.748,4.276l-0.354,0.067
						c0,0-0.582-1.151-0.863-1.699c0,0-0.488-0.127-0.665-0.414c-0.177-0.287-0.52-0.991-0.516-1.316
						C184.482,188.273,185.128,187.685,185.128,187.685z"/>
					<path style="fill:#AF6152;" d="M185.929,180.532c-0.387,0.069-0.775,0.123-1.161,0.202c-0.433,0.089-0.858,0.166-1.275,0.316
						c-0.238,0.086-0.464,0.2-0.679,0.333c-0.081,0.05-0.167,0.097-0.243,0.155c-0.059,0.045-0.139,0.107-0.186,0.166
						c-0.049,0.063-0.035,0.095-0.119,0.147c-0.098,0.061,0.071,0.172,0.146,0.129c0.083-0.048,0.162-0.035,0.255-0.06
						c0.121-0.033,0.223-0.084,0.334-0.141c0.182-0.093,0.363-0.186,0.543-0.283c0.359-0.193,0.744-0.37,1.137-0.48
						c0.399-0.112,0.807-0.192,1.206-0.307c0.393-0.113,0.835-0.193,1.181-0.421c0.013-0.008-0.013-0.028-0.022-0.026
						C186.67,180.338,186.307,180.465,185.929,180.532z"/>
					<path style="fill:#AF6152;" d="M185.639,182.397c-0.798,0.566-1.614,1.164-2.071,2.053c-0.029,0.057,0.082,0.114,0.121,0.07
						c0.636-0.719,1.465-1.254,2.202-1.867c0.767-0.638,1.492-1.319,2.337-1.858c0.005-0.003-0.005-0.014-0.01-0.011
						C187.344,181.298,186.465,181.811,185.639,182.397z"/>
					<path style="fill:#AF6152;" d="M186.904,178.418c-0.567,0.069-1.136,0.117-1.7,0.202c-0.504,0.076-1.009,0.141-1.51,0.24
						c-0.256,0.05-0.51,0.105-0.762,0.173c-0.252,0.068-0.487,0.184-0.732,0.273c-0.063,0.023,0.023,0.09,0.062,0.085
						c0.261-0.029,0.521-0.019,0.781-0.057c0.268-0.04,0.534-0.096,0.8-0.148c0.561-0.11,1.117-0.24,1.681-0.338
						c0.521-0.091,1.035-0.202,1.559-0.275c0.48-0.068,1.006-0.088,1.47-0.23c0.029-0.009-0.016-0.053-0.031-0.054
						C187.991,178.257,187.43,178.353,186.904,178.418z"/>
					<path style="fill:#37474F;" d="M230.576,141.639c-6.147,1.715-7.007,2.509-11.952,11.372
						c-3.913,7.014-7.371,12.684-7.371,12.684s1.156,2.503,5.561,5.393c3.96,2.597,6.379,2.69,7.187,1.902
						c0,0,5.332-7.77,7.215-11.316C233.659,157.076,234.033,144.028,230.576,141.639z"/>
				</g>
			</g>
		</g>
		<g id="Paint_Pot_00000136380721012130163260000005031608599757567933_">
			<path id="Shadow_00000037659156763369888240000007754333945158549913_" style="opacity:0.1;" d="M291.635,273.195
				c7.557,4.363,19.81,4.363,27.367,0c7.557-4.363,7.557-11.437,0-15.801c-7.557-4.363-19.81-4.363-27.367,0
				C284.077,261.757,284.077,268.831,291.635,273.195z"/>
			<g id="Paint_Pot_00000063597426552477516810000012347431478240801710_">
				<path id="XMLID_00000133490105690551787410000009793305035431465133_" style="fill:#37474F;" d="M321.841,237.534l-32.332-0.44
					l-0.281,26.404l0.003,0c-0.027,2.39,1.525,4.797,4.663,6.654c6.273,3.713,16.51,3.824,22.864,0.247
					c3.206-1.805,4.805-4.203,4.803-6.614L321.841,237.534z"/>
				<path id="XMLID_00000097487382794758622060000018284505025802777530_" style="fill:#455A64;" d="M294.321,230.551
					c-6.352,3.578-6.415,9.489-0.142,13.202c6.273,3.713,16.51,3.824,22.864,0.247c6.354-3.577,6.418-9.488,0.142-13.202
					C310.909,227.083,300.673,226.973,294.321,230.551z"/>
				<path id="XMLID_00000031190072417755093930000010874334800444259201_" style="fill:#263238;" d="M320.452,237.429
					c0,0.422-0.088,0.844-0.229,1.267c-0.493,1.513-1.812,2.92-3.87,4.081c-2.867,1.601-6.685,2.463-10.766,2.427
					c-4.063-0.053-7.863-0.985-10.695-2.656c-1.988-1.179-3.289-2.604-3.747-4.081c-0.158-0.44-0.229-0.897-0.229-1.355
					c0.035-1.97,1.478-3.87,4.099-5.33c2.85-1.618,6.684-2.48,10.748-2.427c4.081,0.035,7.881,0.985,10.713,2.656
					C319.062,233.541,320.469,235.458,320.452,237.429z"/>
				<path id="XMLID_00000085962956661813572750000017815062095248942997_" style="fill:#fbc26b;" d="M320.223,238.695
					c-0.493,1.513-1.812,2.92-3.87,4.081c-2.867,1.601-6.685,2.463-10.766,2.427c-4.063-0.053-7.863-0.985-10.695-2.656
					c-1.988-1.179-3.289-2.604-3.747-4.081c0.492-1.513,1.812-2.92,3.87-4.064c2.85-1.618,6.684-2.48,10.748-2.445
					c4.081,0.053,7.881,1.003,10.713,2.674C318.464,235.81,319.748,237.218,320.223,238.695z"/>
				<path id="XMLID_00000120517860657331485400000014025214911308237222_" style="opacity:0.6;fill:#FFFFFF;" d="M320.223,238.695
					c-0.493,1.513-1.812,2.92-3.87,4.081c-2.867,1.601-6.685,2.463-10.766,2.427c-4.063-0.053-7.863-0.985-10.695-2.656
					c-1.988-1.179-3.289-2.604-3.747-4.081c0.492-1.513,1.812-2.92,3.87-4.064c2.85-1.618,6.684-2.48,10.748-2.445
					c4.081,0.053,7.881,1.003,10.713,2.674C318.464,235.81,319.748,237.218,320.223,238.695z"/>
				<path style="opacity:0.35;fill:#fbc26b;" d="M316.353,242.776c0.544-0.306,1.032-0.631,1.471-0.97
					c-5.902,3.166-15.959,1.714-19.218-0.654c-4.011-2.914-3.588-6.736,1.555-8.637c-1.91,0.413-3.663,1.045-5.145,1.887
					c-2.058,1.143-3.378,2.551-3.87,4.064c0.457,1.477,1.759,2.902,3.747,4.081c2.832,1.671,6.632,2.603,10.695,2.656
					C309.668,245.239,313.486,244.377,316.353,242.776z"/>
				<path id="XMLID_00000176025295942519335110000003711209980788282032_" style="fill:#263238;" d="M312.568,247.427
					c0.709-0.399,1.276-0.064,1.267,0.75c-0.009,0.814-0.591,1.797-1.3,2.197c-0.709,0.4-1.276,0.064-1.267-0.75
					C311.277,248.809,311.859,247.826,312.568,247.427z"/>
				<g id="XMLID_00000145775793287996419640000000181382241491943061_">
					<path id="XMLID_00000127020136023554747330000005879271746783787698_" style="fill:#E0E0E0;" d="M289.457,241.738
						c-1.777,3.501-5.313,11.839-0.721,15.234c0.194,0.141,0.369,0.264,0.563,0.387l-0.018,1.689
						c-0.457-0.281-0.932-0.598-1.39-0.932c-6.861-5.084,0.88-18.136,1.214-18.682c0.088-0.158,0.229-0.246,0.387-0.299
						L289.457,241.738z"/>
					<path id="XMLID_00000131343586272223924900000007800738557264902079_" style="fill:#E0E0E0;" d="M313.169,249.232
						c-0.194,0.405-5.189,9.956-13.404,11.874c-0.95,0.229-1.882,0.334-2.832,0.334c-2.551,0-5.101-0.792-7.652-2.392l0.018-1.689
						c3.395,2.357,6.808,3.166,10.15,2.392c7.582-1.777,12.437-11.082,12.472-11.17c0.176-0.352,0.616-0.475,0.95-0.299
						C313.222,248.458,313.362,248.88,313.169,249.232z"/>
				</g>
			</g>
		</g>
		<g>
			<g>
				<g>
					<path id="XMLID_1043_" style="fill:#455A64;" d="M169.034,414.698c-0.125-2.219-1.835-4.83-3.82-5.831
						c-1.042-0.525-1.778-0.481-2.559-0.037l0,0l-2.442,1.36l5.47,8.199l2.414-1.465l-0.004-0.006
						C168.725,416.529,169.098,415.83,169.034,414.698z"/>
					<path id="XMLID_1101_" style="fill:#37474F;" d="M162.685,410.296c1.985,1.001,3.695,3.612,3.82,5.831
						c0.125,2.219-1.382,3.207-3.367,2.205c-1.984-1.001-3.695-3.612-3.82-5.831C159.194,410.283,160.701,409.295,162.685,410.296z"
						/>
					<path id="XMLID_1099_" style="fill:#263238;" d="M161.696,413.701c-0.049-0.867,0.456-1.296,1.128-0.957
						c0.672,0.339,1.256,1.317,1.305,2.184c0.049,0.867-0.456,1.296-1.128,0.957C162.329,415.546,161.745,414.568,161.696,413.701z"
						/>
					<path id="XMLID_1040_" style="fill:#263238;" d="M162.891,413.929c0.19,0.096,0.354,0.347,0.366,0.559
						c0.012,0.213-0.132,0.308-0.323,0.212s-0.355-0.347-0.367-0.559C162.555,413.928,162.7,413.833,162.891,413.929z"/>
				</g>
				<g>
					<path style="fill:#E0E0E0;" d="M169.513,414.673c-0.133-2.429-1.943-5.195-4.118-6.288c-0.591-0.304-1.165-0.453-1.706-0.453
						c-0.489,0-0.933,0.127-1.308,0.368c-0.15,0.096-2.085,1.18-2.46,1.421c-0.15,0.097-0.288,0.211-0.415,0.344
						c-0.48,0.508-0.74,1.237-0.751,2.115c2.859,1.651,8.27,4.775,8.27,4.775l2.46-1.421
						C169.524,415.264,169.53,414.977,169.513,414.673z"/>
					<path style="fill:#F5F5F5;" d="M167.025,416.956l-8.27-4.776c0.011-0.878,0.271-1.606,0.751-2.114
						c0.442-0.464,1.038-0.712,1.722-0.712c0.541,0,1.115,0.149,1.706,0.453c2.175,1.093,3.986,3.859,4.118,6.288
						C167.069,416.399,167.064,416.686,167.025,416.956z"/>
				</g>
			</g>
			<g>
				<path style="fill:#37474F;" d="M165.718,248.853c0-0.25-0.165-0.501-0.497-0.692c-0.662-0.382-1.735-0.382-2.397,0
					c-0.331,0.191-0.496,0.441-0.496,0.692c0,0.17,0,159.804,0,159.974c0,0.25,0.165,0.501,0.496,0.692
					c0.662,0.382,1.735,0.382,2.397,0c0.331-0.191,0.496-0.442,0.496-0.692C165.718,408.657,165.718,249.023,165.718,248.853z"/>
				<path style="fill:#455A64;" d="M162.825,248.161c-0.331,0.191-0.496,0.441-0.496,0.692s0.166,0.501,0.497,0.692
					c0.662,0.382,1.735,0.382,2.397,0c0.331-0.191,0.496-0.441,0.496-0.692c0-0.25-0.165-0.501-0.496-0.692
					C164.56,247.779,163.487,247.779,162.825,248.161z"/>
			</g>
			<g>
				<path style="fill:#455A64;" d="M164.835,390.241c-0.217-0.125-0.517-0.107-0.847,0.084c-0.662,0.382-1.198,1.312-1.198,2.076
					c0,0.382,0.134,0.651,0.351,0.776c0.147,0.085,74.556,43.043,74.703,43.128c0.217,0.125,0.517,0.107,0.848-0.084
					c0.662-0.382,1.198-1.311,1.198-2.076c0-0.382-0.134-0.651-0.351-0.776C239.391,433.283,164.982,390.325,164.835,390.241z"/>
				<path style="fill:#455A64;" d="M238.69,436.22c-0.331,0.191-0.631,0.209-0.848,0.084c-0.217-0.125-0.351-0.394-0.351-0.776
					c0-0.764,0.536-1.694,1.199-2.076c0.331-0.191,0.631-0.209,0.847-0.084c0.217,0.125,0.351,0.394,0.351,0.776
					C239.889,434.908,239.352,435.838,238.69,436.22z"/>
			</g>
			<g>
				<g>
					<path style="fill:#455A64;" d="M164.835,331.84c-0.217-0.125-0.517-0.107-0.847,0.084c-0.662,0.382-1.198,1.312-1.198,2.076
						c0,0.382,0.134,0.651,0.351,0.776c0.147,0.085,36.181,20.868,36.328,20.953c0.217,0.125,0.517,0.107,0.847-0.084
						c0.662-0.382,1.199-1.312,1.199-2.076c0-0.382-0.134-0.651-0.351-0.776C201.016,352.708,164.982,331.925,164.835,331.84z"/>
					<path style="fill:#455A64;" d="M200.316,355.645c-0.331,0.191-0.631,0.209-0.847,0.084c-0.217-0.125-0.351-0.394-0.351-0.776
						c0-0.764,0.537-1.694,1.199-2.076c0.331-0.191,0.631-0.209,0.848-0.084c0.217,0.125,0.351,0.394,0.351,0.776
						C201.514,354.334,200.978,355.263,200.316,355.645z"/>
				</g>
				<g>
					<path style="fill:#455A64;" d="M164.835,360.828c-0.217-0.125-0.517-0.107-0.847,0.084c-0.662,0.382-1.198,1.312-1.198,2.076
						c0,0.382,0.134,0.651,0.351,0.776c0.147,0.085,36.181,20.868,36.328,20.953c0.217,0.125,0.517,0.107,0.847-0.084
						c0.662-0.382,1.199-1.312,1.199-2.076c0-0.382-0.134-0.651-0.351-0.776C201.016,381.697,164.982,360.913,164.835,360.828z"/>
					<path style="fill:#455A64;" d="M200.316,384.634c-0.331,0.191-0.631,0.209-0.847,0.084c-0.217-0.125-0.351-0.394-0.351-0.776
						c0-0.764,0.537-1.694,1.199-2.076c0.331-0.191,0.631-0.209,0.848-0.084c0.217,0.125,0.351,0.394,0.351,0.776
						C201.514,383.322,200.978,384.251,200.316,384.634z"/>
				</g>
			</g>
			<g>
				<path style="fill:#37474F;" d="M201.757,325.263c0-0.25-0.165-0.501-0.496-0.692c-0.662-0.382-1.735-0.382-2.397,0
					c-0.331,0.191-0.496,0.441-0.496,0.692c0,0.17,0,86.453,0,86.622c0,0.25,0.165,0.501,0.496,0.692
					c0.662,0.382,1.735,0.382,2.397,0c0.331-0.191,0.496-0.441,0.496-0.692C201.757,411.716,201.757,325.433,201.757,325.263z"/>
				<path style="fill:#455A64;" d="M198.864,324.572c-0.331,0.191-0.496,0.441-0.496,0.692s0.165,0.501,0.496,0.692
					c0.662,0.382,1.735,0.382,2.397,0c0.331-0.191,0.496-0.441,0.496-0.692c0-0.25-0.165-0.501-0.496-0.692
					C200.599,324.189,199.526,324.189,198.864,324.572z"/>
			</g>
			<g>
				<path style="fill:#455A64;" d="M164.835,302.852c-0.217-0.125-0.517-0.107-0.847,0.084c-0.662,0.382-1.198,1.312-1.198,2.076
					c0,0.382,0.134,0.651,0.351,0.776c0.147,0.085,74.556,43.043,74.703,43.128c0.217,0.125,0.517,0.107,0.848-0.084
					c0.662-0.382,1.198-1.312,1.198-2.076c0-0.382-0.134-0.651-0.351-0.776C239.391,345.894,164.982,302.936,164.835,302.852z"/>
				<path style="fill:#455A64;" d="M238.69,348.831c-0.331,0.191-0.631,0.209-0.848,0.084c-0.217-0.125-0.351-0.394-0.351-0.776
					c0-0.764,0.536-1.694,1.199-2.076c0.331-0.191,0.631-0.209,0.847-0.084c0.217,0.125,0.351,0.394,0.351,0.776
					C239.889,347.519,239.352,348.449,238.69,348.831z"/>
			</g>
			<g>
				<path style="fill:#455A64;" d="M164.835,264.917c-0.217-0.125-0.517-0.107-0.847,0.084c-0.662,0.382-1.198,1.312-1.198,2.076
					c0,0.382,0.134,0.651,0.351,0.776c0.147,0.085,74.556,43.043,74.703,43.127c0.217,0.125,0.517,0.107,0.848-0.084
					c0.662-0.382,1.198-1.311,1.198-2.076c0-0.382-0.134-0.651-0.351-0.776C239.391,307.96,164.982,265.002,164.835,264.917z"/>
				<path style="fill:#455A64;" d="M238.69,310.896c-0.331,0.191-0.631,0.209-0.848,0.084c-0.217-0.125-0.351-0.394-0.351-0.776
					c0-0.764,0.536-1.694,1.199-2.076c0.331-0.191,0.631-0.209,0.847-0.084c0.217,0.125,0.351,0.394,0.351,0.776
					C239.889,309.585,239.352,310.514,238.69,310.896z"/>
			</g>
			<g>
				<path style="fill:#455A64;" d="M237.843,308.045c-0.217,0.125-0.351,0.394-0.351,0.776c0,0.764,0.536,1.694,1.198,2.076
					c0.331,0.191,0.631,0.209,0.847,0.084c0.147-0.085,139.105-80.27,139.252-80.355c0.217-0.125,0.351-0.394,0.351-0.776
					c0-0.764-0.537-1.694-1.199-2.076c-0.331-0.191-0.631-0.209-0.848-0.084C376.947,227.775,237.99,307.96,237.843,308.045z"/>
				<path style="fill:#455A64;" d="M238.69,310.896c0.331,0.191,0.631,0.209,0.847,0.084c0.217-0.125,0.351-0.394,0.351-0.776
					c0-0.764-0.537-1.694-1.199-2.076c-0.331-0.191-0.631-0.209-0.848-0.084c-0.217,0.125-0.351,0.394-0.351,0.776
					C237.492,309.585,238.028,310.514,238.69,310.896z"/>
			</g>
			<g>
				<g>
					<path id="XMLID_00000168076668851376211500000004586788636746546873_" style="fill:#455A64;" d="M243.737,457.828
						c-0.125-2.219-1.836-4.83-3.82-5.831c-1.042-0.525-1.777-0.481-2.559-0.037l0,0l-2.443,1.36l5.47,8.199l2.414-1.465
						l-0.004-0.006C243.428,459.659,243.801,458.96,243.737,457.828z"/>
					<path id="XMLID_00000109020047569995069180000003236732618493040556_" style="fill:#37474F;" d="M237.389,453.426
						c1.984,1.001,3.695,3.612,3.82,5.831c0.125,2.219-1.382,3.207-3.366,2.205c-1.985-1.001-3.695-3.612-3.82-5.831
						C233.897,453.412,235.404,452.425,237.389,453.426z"/>
					<path id="XMLID_00000036953765727960901850000000303857049757912982_" style="fill:#263238;" d="M236.399,456.831
						c-0.049-0.867,0.456-1.296,1.128-0.957c0.672,0.339,1.256,1.317,1.305,2.184c0.049,0.867-0.456,1.296-1.128,0.957
						C237.033,458.676,236.448,457.698,236.399,456.831z"/>
					<path id="XMLID_00000118377088139895274200000005254987941340646308_" style="fill:#263238;" d="M237.594,457.059
						c0.191,0.096,0.355,0.346,0.367,0.56c0.012,0.213-0.132,0.308-0.323,0.212c-0.191-0.096-0.355-0.347-0.367-0.56
						C237.259,457.057,237.404,456.962,237.594,457.059z"/>
				</g>
				<g>
					<path style="fill:#E0E0E0;" d="M244.217,457.802c-0.133-2.429-1.943-5.195-4.118-6.288c-0.591-0.304-1.165-0.453-1.706-0.453
						c-0.489,0-0.933,0.127-1.308,0.368c-0.15,0.097-2.085,1.18-2.459,1.421c-0.15,0.096-0.289,0.211-0.415,0.344
						c-0.48,0.508-0.74,1.237-0.751,2.114c2.859,1.651,8.27,4.776,8.27,4.776l2.46-1.421
						C244.228,458.393,244.234,458.106,244.217,457.802z"/>
					<path style="fill:#F5F5F5;" d="M241.729,460.086l-8.27-4.776c0.011-0.878,0.271-1.607,0.751-2.114
						c0.442-0.464,1.038-0.712,1.722-0.712c0.541,0,1.115,0.149,1.706,0.453c2.175,1.093,3.986,3.859,4.118,6.288
						C241.773,459.528,241.767,459.815,241.729,460.086z"/>
				</g>
			</g>
			<g>
				<path style="fill:#37474F;" d="M240.422,291.983c0-0.251-0.165-0.501-0.497-0.692c-0.662-0.382-1.735-0.382-2.397,0
					c-0.331,0.191-0.496,0.441-0.496,0.692c0,0.17,0,159.804,0,159.974c0,0.25,0.165,0.501,0.496,0.692
					c0.662,0.382,1.735,0.382,2.397,0c0.331-0.191,0.496-0.441,0.496-0.692C240.422,451.787,240.422,292.152,240.422,291.983z"/>
				<path style="fill:#455A64;" d="M237.528,291.29c-0.331,0.191-0.496,0.441-0.496,0.692c0,0.251,0.165,0.501,0.496,0.692
					c0.662,0.382,1.735,0.382,2.397,0c0.331-0.191,0.497-0.441,0.497-0.692c0-0.251-0.165-0.501-0.497-0.692
					C239.263,290.908,238.19,290.908,237.528,291.29z"/>
			</g>
		</g>
	</g>
</g>
</svg>
